<?xml version="1.0" encoding="UTF-8"?>
<!DOCTYPE svg PUBLIC "-//W3C//DTD SVG 1.1//EN" "http://www.w3.org/Graphics/SVG/1.1/DTD/svg11.dtd">
<svg version="1.1" xmlns="http://www.w3.org/2000/svg" xmlns:xlink="http://www.w3.org/1999/xlink" x="0" y="0" width="777.06" height="437.1" viewBox="0, 0, 777.06, 437.1">
  <g id="Layer_1">
    <path d="M244.576,28.776 L517.81,28.776 C550.758,28.776 577.468,55.486 577.468,88.434 L577.468,361.668 C577.468,394.616 550.758,421.326 517.81,421.326 L244.576,421.326 C211.628,421.326 184.918,394.616 184.918,361.668 L184.918,88.434 C184.918,55.486 211.628,28.776 244.576,28.776 z" fill="#C7B299" opacity="0.41"/>
    <path d="M145.543,114.684 L499.912,114.684 L499.912,365.248 L145.543,365.248 z" fill="#FFFFFF"/>
    <path d="M493.147,121.449 L493.147,358.483 L152.309,358.483 L152.309,121.449 L493.147,121.449 M499.912,114.684 L145.543,114.684 L145.543,365.248 L499.912,365.248 L499.912,114.684 z" fill="#465775"/>
    <path d="M164.634,133.774 L480.822,133.774 L480.822,346.157 L164.634,346.157 z" fill="#29ABE2"/>
    <path d="M58.073,41.603 L432.391,41.603 C447.311,41.603 459.405,53.696 459.405,68.616 L459.405,68.616 C459.405,83.535 447.311,95.629 432.391,95.629 L58.073,95.629 C43.153,95.629 31.059,83.535 31.059,68.616 L31.059,68.616 C31.059,53.696 43.153,41.603 58.073,41.603 z" fill="#FFFFFF"/>
    <path d="M432.391,47.568 C444.015,47.568 453.439,56.992 453.439,68.616 C453.439,80.24 444.015,89.663 432.391,89.663 L58.073,89.663 C46.449,89.663 37.025,80.24 37.025,68.616 C37.025,56.992 46.449,47.568 58.073,47.568 L432.391,47.568 M432.391,41.603 L58.073,41.603 C43.153,41.603 31.059,53.696 31.059,68.616 L31.059,68.616 C31.052,83.537 43.151,95.636 58.073,95.629 L432.391,95.629 C447.311,95.629 459.405,83.535 459.405,68.616 L459.405,68.616 C459.405,53.696 447.311,41.603 432.391,41.603 z" fill="#465775"/>
    <path d="M415.997,151.278 L411.01,151.278 C410.65,151.237 410.299,151.407 410.105,151.714 C409.913,152.02 409.913,152.409 410.105,152.716 C410.299,153.022 410.65,153.192 411.01,153.151 L415.997,153.151 C416.358,153.192 416.708,153.022 416.902,152.716 C417.094,152.409 417.094,152.02 416.902,151.714 C416.708,151.407 416.358,151.237 415.997,151.278 z M406.022,151.278 L401.023,151.278 C400.547,151.332 400.187,151.735 400.187,152.215 C400.187,152.694 400.547,153.098 401.023,153.151 L406.022,153.151 C406.499,153.098 406.859,152.694 406.859,152.215 C406.859,151.735 406.499,151.332 406.022,151.278 z M396.036,151.278 L391.096,151.278 C390.736,151.237 390.385,151.407 390.192,151.714 C390,152.02 390,152.409 390.192,152.716 C390.385,153.022 390.736,153.192 391.096,153.151 L396.083,153.151 C396.56,153.098 396.92,152.694 396.92,152.215 C396.92,151.735 396.56,151.332 396.083,151.278 z M386.049,151.278 L381.062,151.278 C380.585,151.332 380.225,151.735 380.225,152.215 C380.225,152.694 380.585,153.098 381.062,153.151 L386.049,153.151 C386.409,153.192 386.76,153.022 386.953,152.716 C387.145,152.409 387.145,152.02 386.953,151.714 C386.76,151.407 386.409,151.237 386.049,151.278 z M376.074,151.278 L371.075,151.278 C370.599,151.332 370.238,151.735 370.238,152.215 C370.238,152.694 370.599,153.098 371.075,153.151 L376.074,153.151 C376.55,153.098 376.911,152.694 376.911,152.215 C376.911,151.735 376.55,151.332 376.074,151.278 z M366.087,151.278 L361.1,151.278 C360.74,151.237 360.389,151.407 360.196,151.714 C360.003,152.02 360.003,152.409 360.196,152.716 C360.389,153.022 360.74,153.192 361.1,153.151 L366.04,153.151 C366.4,153.192 366.751,153.022 366.944,152.716 C367.136,152.409 367.136,152.02 366.944,151.714 C366.751,151.407 366.4,151.237 366.04,151.278 z M356.113,151.278 L351.34,151.278 L351.077,151.278 C350.599,151.351 350.254,151.774 350.278,152.258 C350.303,152.741 350.69,153.127 351.173,153.151 L351.268,153.151 C351.507,153.151 351.757,153.151 351.996,153.151 L356.077,153.151 C356.553,153.098 356.913,152.694 356.913,152.215 C356.913,151.735 356.553,151.332 356.077,151.278 z M347.14,152.984 C346.929,152.988 346.724,153.058 346.555,153.187 C346.122,153.547 345.722,153.947 345.362,154.38 L345.112,154.38 L345.112,154.38 L345.112,154.38 C344.521,155.139 344.058,155.99 343.739,156.898 C343.574,157.388 343.835,157.922 344.324,158.091 C344.427,158.109 344.532,158.109 344.634,158.091 C345.033,158.087 345.386,157.834 345.517,157.459 C345.949,156.213 346.727,155.116 347.76,154.297 C347.954,154.142 348.078,153.916 348.105,153.67 C348.131,153.423 348.06,153.178 347.904,152.984 C347.731,152.758 347.461,152.624 347.176,152.626 z M344.169,161.205 C343.649,161.205 343.226,161.628 343.226,162.148 L343.226,167.123 C343.186,167.484 343.355,167.834 343.662,168.028 C343.969,168.22 344.357,168.22 344.664,168.028 C344.971,167.834 345.14,167.484 345.1,167.123 L345.1,162.148 C345.103,161.898 345.007,161.659 344.831,161.482 C344.657,161.305 344.418,161.205 344.169,161.205 z M345.362,170.428 C345.184,170.422 345.009,170.472 344.861,170.571 C344.649,170.702 344.498,170.913 344.445,171.155 C344.391,171.398 344.437,171.652 344.575,171.86 C345.473,173.273 346.757,174.398 348.273,175.105 C348.396,175.165 348.531,175.197 348.667,175.201 C349.103,175.193 349.475,174.886 349.568,174.461 C349.662,174.036 349.452,173.602 349.061,173.411 C347.87,172.85 346.861,171.965 346.15,170.858 C345.981,170.586 345.682,170.422 345.362,170.428 z M358.141,174.008 L353.142,174.008 C352.626,174.014 352.211,174.435 352.211,174.95 C352.211,175.465 352.627,175.881 353.142,175.881 L358.141,175.881 C358.655,175.881 359.072,175.465 359.072,174.95 C359.072,174.435 358.656,174.014 358.141,174.008 z M368.116,174.008 L363.128,174.008 C362.61,174.014 362.192,174.433 362.186,174.95 C362.192,175.466 362.613,175.881 363.128,175.881 L368.116,175.881 C368.631,175.881 369.052,175.466 369.058,174.95 C369.052,174.433 368.634,174.014 368.116,174.008 z M378.102,174.008 L373.199,174.008 C372.683,174.014 372.268,174.435 372.268,174.95 C372.268,175.465 372.684,175.881 373.199,175.881 L378.198,175.881 C378.712,175.881 379.129,175.465 379.129,174.95 C379.129,174.435 378.713,174.014 378.198,174.008 z M388.077,174.008 L383.09,174.008 C382.574,174.014 382.159,174.435 382.159,174.95 C382.159,175.465 382.576,175.881 383.09,175.881 L388.077,175.881 C388.327,175.885 388.567,175.788 388.743,175.613 C388.92,175.438 389.02,175.2 389.02,174.95 C389.02,174.43 388.598,174.008 388.077,174.008 z M398.064,174.008 L393.077,174.008 C392.556,174.008 392.134,174.43 392.134,174.95 C392.134,175.2 392.234,175.438 392.411,175.613 C392.587,175.788 392.827,175.885 393.077,175.881 L398.064,175.881 C398.578,175.881 398.995,175.465 398.995,174.95 C398.995,174.435 398.58,174.014 398.064,174.008 z M408.051,174.008 L403.052,174.008 C402.536,174.014 402.121,174.435 402.121,174.95 C402.121,175.465 402.537,175.881 403.052,175.881 L408.051,175.881 C408.565,175.881 408.982,175.465 408.982,174.95 C408.982,174.435 408.566,174.014 408.051,174.008 z M418.026,174.008 L413.038,174.008 C412.52,174.014 412.102,174.433 412.096,174.95 C412.102,175.466 412.523,175.881 413.038,175.881 L418.026,175.881 C418.275,175.885 418.515,175.788 418.691,175.613 C418.868,175.438 418.968,175.2 418.968,174.95 C418.968,174.43 418.546,174.008 418.026,174.008 z M426.998,172.946 C426.792,172.943 426.589,173.01 426.426,173.137 L425.304,174.008 L423.013,174.008 C422.498,174.014 422.082,174.435 422.082,174.95 C422.082,175.465 422.499,175.881 423.013,175.881 L425.948,175.881 L427.571,174.616 C427.771,174.467 427.901,174.243 427.934,173.996 C427.965,173.748 427.894,173.498 427.738,173.304 C427.563,173.074 427.288,172.94 426.998,172.946 z M434.885,166.813 C434.674,166.817 434.469,166.887 434.3,167.016 L430.363,170.082 C429.958,170.401 429.883,170.985 430.196,171.395 C430.379,171.617 430.648,171.748 430.936,171.753 C431.147,171.749 431.352,171.679 431.52,171.55 L432.427,170.846 L432.427,170.846 L432.594,170.715 L432.594,170.715 L432.594,170.715 L432.654,170.715 L432.654,170.715 L432.654,170.715 L432.654,170.715 L432.654,170.715 L432.654,170.715 L432.654,170.715 L432.654,170.715 L432.654,170.715 L435.231,168.71 C435.427,168.557 435.553,168.333 435.582,168.086 C435.612,167.84 435.54,167.592 435.386,167.398 C435.21,167.175 434.942,167.043 434.658,167.04 z M439.658,162.16 C439.338,162.164 439.043,162.329 438.87,162.598 C438.698,162.866 438.671,163.204 438.799,163.496 L438.226,163.949 C438.025,164.099 437.895,164.323 437.863,164.57 C437.832,164.818 437.903,165.067 438.059,165.262 C438.234,165.492 438.509,165.626 438.799,165.62 C439.005,165.622 439.208,165.555 439.371,165.429 L441.758,163.556 L441.758,163.556 L440.23,162.363 L440.23,162.363 C440.066,162.236 439.865,162.166 439.658,162.16 z M431.771,156.039 C431.37,156.035 431.012,156.288 430.882,156.668 C430.753,157.047 430.88,157.466 431.198,157.709 L435.136,160.776 C435.301,160.898 435.502,160.965 435.708,160.967 C435.998,160.972 436.273,160.839 436.448,160.609 C436.602,160.414 436.674,160.166 436.644,159.92 C436.615,159.673 436.489,159.449 436.293,159.296 L434.324,157.769 L434.324,157.769 L432.391,156.265 C432.228,156.139 432.025,156.072 431.819,156.075 z M425.924,151.266 L420.937,151.266 C420.577,151.226 420.226,151.395 420.033,151.702 C419.84,152.008 419.84,152.397 420.033,152.704 C420.226,153.011 420.577,153.18 420.937,153.139 L425.28,153.139 L427.261,154.679 C427.423,154.809 427.625,154.88 427.833,154.881 C428.123,154.877 428.395,154.741 428.573,154.512 C428.885,154.106 428.809,153.525 428.406,153.211 L425.924,151.266 z" fill="#000000" opacity="0.5"/>
    <path d="M415.997,196.213 L411.01,196.213 C410.65,196.172 410.299,196.341 410.105,196.648 C409.913,196.955 409.913,197.344 410.105,197.65 C410.299,197.957 410.65,198.126 411.01,198.086 L415.997,198.086 C416.358,198.126 416.708,197.957 416.902,197.65 C417.094,197.344 417.094,196.955 416.902,196.648 C416.708,196.341 416.358,196.172 415.997,196.213 z M406.022,196.213 L401.023,196.213 C400.547,196.266 400.187,196.67 400.187,197.149 C400.187,197.629 400.547,198.032 401.023,198.086 L406.022,198.086 C406.499,198.032 406.859,197.629 406.859,197.149 C406.859,196.67 406.499,196.266 406.022,196.213 z M396.036,196.213 L391.096,196.213 C390.736,196.172 390.385,196.341 390.192,196.648 C390,196.955 390,197.344 390.192,197.65 C390.385,197.957 390.736,198.126 391.096,198.086 L396.083,198.086 C396.56,198.032 396.92,197.629 396.92,197.149 C396.92,196.67 396.56,196.266 396.083,196.213 z M386.049,196.213 L381.062,196.213 C380.585,196.266 380.225,196.67 380.225,197.149 C380.225,197.629 380.585,198.032 381.062,198.086 L386.049,198.086 C386.409,198.126 386.76,197.957 386.953,197.65 C387.145,197.344 387.145,196.955 386.953,196.648 C386.76,196.341 386.409,196.172 386.049,196.213 z M376.074,196.213 L371.075,196.213 C370.599,196.266 370.238,196.67 370.238,197.149 C370.238,197.629 370.599,198.032 371.075,198.086 L376.074,198.086 C376.55,198.032 376.911,197.629 376.911,197.149 C376.911,196.67 376.55,196.266 376.074,196.213 z M366.04,196.213 L361.052,196.213 C360.692,196.172 360.341,196.341 360.148,196.648 C359.956,196.955 359.956,197.344 360.148,197.65 C360.341,197.957 360.692,198.126 361.052,198.086 L366.04,198.086 C366.4,198.126 366.751,197.957 366.944,197.65 C367.136,197.344 367.136,196.955 366.944,196.648 C366.751,196.341 366.4,196.172 366.04,196.213 z M356.065,196.213 L351.292,196.213 L351.03,196.213 C350.518,196.269 350.146,196.726 350.194,197.239 C350.254,197.71 350.65,198.066 351.125,198.074 L351.221,198.074 C351.459,198.074 351.71,198.074 351.948,198.074 L356.029,198.074 C356.505,198.02 356.865,197.617 356.865,197.137 C356.865,196.658 356.505,196.254 356.029,196.201 z M347.092,197.919 C346.88,197.916 346.673,197.988 346.508,198.122 C346.074,198.482 345.675,198.882 345.314,199.315 L345.314,199.315 L345.314,199.315 L345.171,199.315 L345.171,199.315 L345.171,199.315 L345.171,199.315 L345.171,199.315 C344.581,200.074 344.118,200.924 343.799,201.832 C343.716,202.069 343.731,202.327 343.841,202.552 C343.951,202.776 344.146,202.947 344.384,203.025 C344.486,203.043 344.591,203.043 344.694,203.025 C345.089,203.024 345.442,202.776 345.577,202.405 C346.008,201.156 346.786,200.055 347.82,199.231 C348.13,198.984 348.25,198.568 348.118,198.194 C347.986,197.82 347.632,197.57 347.235,197.573 z M344.121,206.14 C343.872,206.136 343.632,206.233 343.455,206.408 C343.279,206.582 343.179,206.821 343.179,207.07 L343.179,212.058 C343.232,212.534 343.636,212.894 344.115,212.894 C344.595,212.894 344.998,212.534 345.052,212.058 L345.052,207.07 C345.052,206.556 344.636,206.14 344.121,206.14 z M345.314,215.351 C345.138,215.351 344.964,215.4 344.813,215.494 C344.601,215.624 344.451,215.835 344.397,216.077 C344.343,216.321 344.39,216.575 344.527,216.783 C345.428,218.195 346.71,219.324 348.226,220.04 C348.68,220.223 349.199,220.024 349.419,219.587 C349.613,219.132 349.413,218.605 348.965,218.393 C347.771,217.831 346.762,216.943 346.054,215.828 C345.881,215.561 345.585,215.4 345.267,215.399 z M358.093,218.93 L353.094,218.93 C352.618,218.984 352.257,219.387 352.257,219.867 C352.257,220.347 352.618,220.75 353.094,220.804 L358.093,220.804 C358.569,220.75 358.93,220.347 358.93,219.867 C358.93,219.387 358.569,218.984 358.093,218.93 z M368.068,218.93 L363.081,218.93 C362.72,218.89 362.369,219.059 362.176,219.366 C361.984,219.672 361.984,220.061 362.176,220.368 C362.369,220.675 362.72,220.844 363.081,220.804 L368.068,220.804 C368.428,220.844 368.779,220.675 368.972,220.368 C369.165,220.061 369.165,219.672 368.972,219.366 C368.779,219.059 368.428,218.89 368.068,218.93 z M378.055,218.93 L373.199,218.93 C372.723,218.984 372.362,219.387 372.362,219.867 C372.362,220.347 372.723,220.75 373.199,220.804 L378.198,220.804 C378.674,220.75 379.034,220.347 379.034,219.867 C379.034,219.387 378.674,218.984 378.198,218.93 z M388.03,218.93 L383.042,218.93 C382.566,218.984 382.206,219.387 382.206,219.867 C382.206,220.347 382.566,220.75 383.042,220.804 L388.03,220.804 C388.39,220.844 388.741,220.675 388.934,220.368 C389.126,220.061 389.126,219.672 388.934,219.366 C388.741,219.059 388.39,218.89 388.03,218.93 z M398.016,218.93 L393.029,218.93 C392.669,218.89 392.318,219.059 392.125,219.366 C391.932,219.672 391.932,220.061 392.125,220.368 C392.318,220.675 392.669,220.844 393.029,220.804 L398.016,220.804 C398.492,220.75 398.853,220.347 398.853,219.867 C398.853,219.387 398.492,218.984 398.016,218.93 z M408.003,218.93 L403.004,218.93 C402.528,218.984 402.167,219.387 402.167,219.867 C402.167,220.347 402.528,220.75 403.004,220.804 L408.003,220.804 C408.479,220.75 408.84,220.347 408.84,219.867 C408.84,219.387 408.479,218.984 408.003,218.93 z M417.978,218.93 L412.991,218.93 C412.63,218.89 412.279,219.059 412.086,219.366 C411.894,219.672 411.894,220.061 412.086,220.368 C412.279,220.675 412.63,220.844 412.991,220.804 L417.978,220.804 C418.338,220.844 418.689,220.675 418.882,220.368 C419.074,220.061 419.074,219.672 418.882,219.366 C418.689,219.059 418.338,218.89 417.978,218.93 z M426.951,217.856 C426.742,217.858 426.54,217.929 426.378,218.059 L425.256,218.93 L422.965,218.93 C422.489,218.984 422.129,219.387 422.129,219.867 C422.129,220.347 422.489,220.75 422.965,220.804 L425.901,220.804 L427.523,219.539 C427.837,219.292 427.96,218.873 427.831,218.495 C427.702,218.118 427.35,217.861 426.951,217.856 z M434.837,211.736 C434.627,211.734 434.422,211.801 434.253,211.926 L430.315,214.993 C429.997,215.236 429.87,215.655 429.999,216.035 C430.129,216.414 430.487,216.667 430.888,216.663 C431.098,216.665 431.303,216.598 431.473,216.472 L432.379,215.757 L432.379,215.757 L432.547,215.637 L432.642,215.637 L432.642,215.637 L432.642,215.637 L432.642,215.637 L432.642,215.637 L432.642,215.637 L432.642,215.637 L435.219,213.645 C435.415,213.492 435.541,213.268 435.57,213.021 C435.6,212.775 435.528,212.527 435.374,212.332 C435.201,212.105 434.932,211.972 434.646,211.974 z M439.61,207.082 C439.32,207.076 439.046,207.21 438.87,207.44 C438.652,207.715 438.605,208.088 438.751,208.407 L438.178,208.86 C437.77,209.189 437.706,209.788 438.035,210.196 C438.364,210.604 438.963,210.669 439.371,210.34 L441.758,208.478 L441.758,208.478 L440.23,207.285 L440.23,207.285 C440.065,207.162 439.864,207.095 439.658,207.094 z M431.831,200.985 C431.543,200.99 431.273,201.121 431.091,201.343 C430.778,201.752 430.853,202.337 431.258,202.656 L435.243,205.758 C435.408,205.884 435.608,205.955 435.816,205.961 C436.217,205.961 436.575,205.707 436.707,205.327 C436.838,204.948 436.715,204.528 436.4,204.278 L434.432,202.751 L434.432,202.751 L432.499,201.248 C432.339,201.113 432.135,201.04 431.926,201.045 z M425.984,196.213 L420.997,196.213 C420.636,196.172 420.286,196.341 420.092,196.648 C419.9,196.955 419.9,197.344 420.092,197.65 C420.286,197.957 420.636,198.126 420.997,198.086 L425.34,198.086 L427.32,199.625 C427.484,199.751 427.687,199.818 427.893,199.816 C428.294,199.819 428.652,199.566 428.782,199.187 C428.911,198.808 428.784,198.389 428.466,198.145 L425.984,196.213 z" fill="#000000" opacity="0.5"/>
    <path d="M415.997,246.588 L411.01,246.588 C410.65,246.547 410.299,246.717 410.105,247.023 C409.913,247.33 409.913,247.719 410.105,248.026 C410.299,248.332 410.65,248.502 411.01,248.461 L415.997,248.461 C416.358,248.502 416.708,248.332 416.902,248.026 C417.094,247.719 417.094,247.33 416.902,247.023 C416.708,246.717 416.358,246.547 415.997,246.588 z M406.022,246.588 L401.023,246.588 C400.547,246.641 400.187,247.045 400.187,247.524 C400.187,248.004 400.547,248.407 401.023,248.461 L406.022,248.461 C406.499,248.407 406.859,248.004 406.859,247.524 C406.859,247.045 406.499,246.641 406.022,246.588 z M396.036,246.588 L391.096,246.588 C390.736,246.547 390.385,246.717 390.192,247.023 C390,247.33 390,247.719 390.192,248.026 C390.385,248.332 390.736,248.502 391.096,248.461 L396.083,248.461 C396.56,248.407 396.92,248.004 396.92,247.524 C396.92,247.045 396.56,246.641 396.083,246.588 z M386.049,246.588 L381.062,246.588 C380.585,246.641 380.225,247.045 380.225,247.524 C380.225,248.004 380.585,248.407 381.062,248.461 L386.049,248.461 C386.409,248.502 386.76,248.332 386.953,248.026 C387.145,247.719 387.145,247.33 386.953,247.023 C386.76,246.717 386.409,246.547 386.049,246.588 z M376.074,246.588 L371.075,246.588 C370.599,246.641 370.238,247.045 370.238,247.524 C370.238,248.004 370.599,248.407 371.075,248.461 L376.074,248.461 C376.55,248.407 376.911,248.004 376.911,247.524 C376.911,247.045 376.55,246.641 376.074,246.588 z M366.087,246.588 L361.1,246.588 C360.74,246.547 360.389,246.717 360.196,247.023 C360.003,247.33 360.003,247.719 360.196,248.026 C360.389,248.332 360.74,248.502 361.1,248.461 L366.04,248.461 C366.4,248.502 366.751,248.332 366.944,248.026 C367.136,247.719 367.136,247.33 366.944,247.023 C366.751,246.717 366.4,246.547 366.04,246.588 z M356.113,246.588 L351.34,246.588 L351.077,246.588 C350.599,246.661 350.254,247.084 350.278,247.567 C350.303,248.051 350.69,248.437 351.173,248.461 L351.268,248.461 C351.507,248.461 351.757,248.461 351.996,248.461 L356.077,248.461 C356.553,248.407 356.913,248.004 356.913,247.524 C356.913,247.045 356.553,246.641 356.077,246.588 z M347.14,248.294 C346.929,248.298 346.724,248.368 346.555,248.497 C346.125,248.861 345.726,249.259 345.362,249.69 L345.135,249.69 L345.135,249.69 L345.135,249.69 L345.135,249.69 L345.135,249.69 C344.545,250.449 344.082,251.3 343.763,252.208 C343.68,252.444 343.695,252.703 343.805,252.927 C343.915,253.151 344.111,253.322 344.348,253.401 C344.451,253.419 344.556,253.419 344.658,253.401 C345.055,253.395 345.407,253.142 345.541,252.768 C345.973,251.523 346.751,250.426 347.784,249.607 C347.978,249.451 348.102,249.226 348.129,248.98 C348.155,248.733 348.084,248.487 347.927,248.294 C347.754,248.067 347.485,247.934 347.2,247.936 z M344.169,256.515 C343.649,256.515 343.226,256.937 343.226,257.458 L343.226,262.433 C343.186,262.793 343.355,263.144 343.662,263.337 C343.969,263.53 344.357,263.53 344.664,263.337 C344.971,263.144 345.14,262.793 345.1,262.433 L345.1,257.458 C345.103,257.208 345.007,256.968 344.831,256.792 C344.657,256.615 344.418,256.515 344.169,256.515 z M345.362,265.726 C345.183,265.724 345.008,265.779 344.861,265.881 C344.649,266.011 344.498,266.222 344.445,266.465 C344.391,266.708 344.437,266.962 344.575,267.17 C344.989,267.824 345.491,268.418 346.066,268.936 L346.066,268.936 L346.066,268.936 L346.066,268.936 L346.066,268.936 L346.949,268.936 C347.395,269.254 347.871,269.53 348.369,269.759 C348.492,269.819 348.627,269.851 348.763,269.854 C349.198,269.846 349.57,269.539 349.663,269.115 C349.758,268.69 349.548,268.256 349.156,268.065 C347.966,267.504 346.956,266.619 346.245,265.511 C346.078,265.237 345.78,265.069 345.458,265.07 z M358.141,269.365 L353.142,269.365 C352.665,269.419 352.305,269.822 352.305,270.302 C352.305,270.782 352.665,271.185 353.142,271.239 L358.141,271.239 C358.617,271.185 358.977,270.782 358.977,270.302 C358.977,269.822 358.617,269.419 358.141,269.365 z M368.116,269.365 L363.128,269.365 C362.768,269.325 362.417,269.494 362.224,269.801 C362.032,270.107 362.032,270.496 362.224,270.803 C362.417,271.11 362.768,271.279 363.128,271.239 L368.116,271.239 C368.476,271.279 368.827,271.11 369.02,270.803 C369.212,270.496 369.212,270.107 369.02,269.801 C368.827,269.494 368.476,269.325 368.116,269.365 z M378.102,269.365 L373.199,269.365 C372.723,269.419 372.362,269.822 372.362,270.302 C372.362,270.782 372.723,271.185 373.199,271.239 L378.198,271.239 C378.674,271.185 379.034,270.782 379.034,270.302 C379.034,269.822 378.674,269.419 378.198,269.365 z M388.077,269.365 L383.09,269.365 C382.614,269.419 382.254,269.822 382.254,270.302 C382.254,270.782 382.614,271.185 383.09,271.239 L388.077,271.239 C388.438,271.279 388.788,271.11 388.982,270.803 C389.174,270.496 389.174,270.107 388.982,269.801 C388.788,269.494 388.438,269.325 388.077,269.365 z M398.064,269.365 L393.077,269.365 C392.716,269.325 392.366,269.494 392.172,269.801 C391.98,270.107 391.98,270.496 392.172,270.803 C392.366,271.11 392.716,271.279 393.077,271.239 L398.064,271.239 C398.54,271.185 398.9,270.782 398.9,270.302 C398.9,269.822 398.54,269.419 398.064,269.365 z M408.051,269.365 L403.052,269.365 C402.575,269.419 402.215,269.822 402.215,270.302 C402.215,270.782 402.575,271.185 403.052,271.239 L408.051,271.239 C408.527,271.185 408.887,270.782 408.887,270.302 C408.887,269.822 408.527,269.419 408.051,269.365 z M418.026,269.365 L413.038,269.365 C412.678,269.325 412.327,269.494 412.134,269.801 C411.942,270.107 411.942,270.496 412.134,270.803 C412.327,271.11 412.678,271.279 413.038,271.239 L418.026,271.239 C418.386,271.279 418.737,271.11 418.93,270.803 C419.122,270.496 419.122,270.107 418.93,269.801 C418.737,269.494 418.386,269.325 418.026,269.365 z M426.998,268.303 C426.792,268.301 426.589,268.368 426.426,268.494 L425.304,269.365 L423.013,269.365 C422.537,269.419 422.177,269.822 422.177,270.302 C422.177,270.782 422.537,271.185 423.013,271.239 L425.948,271.239 L426.02,271.239 L426.187,271.239 L426.247,271.239 L426.247,271.239 L426.247,271.239 L426.247,271.239 L427.535,270.236 C427.736,270.087 427.866,269.863 427.898,269.616 C427.929,269.368 427.859,269.118 427.702,268.924 C427.527,268.694 427.252,268.56 426.962,268.566 z M434.885,262.171 C434.673,262.168 434.466,262.24 434.3,262.373 L430.363,265.428 C429.958,265.746 429.883,266.331 430.196,266.74 C430.374,266.969 430.646,267.105 430.936,267.11 C431.147,267.107 431.352,267.036 431.52,266.907 L433.095,265.714 L433.095,265.714 L435.482,263.877 C435.677,263.724 435.804,263.5 435.832,263.253 C435.862,263.007 435.791,262.759 435.637,262.564 C435.464,262.338 435.194,262.204 434.909,262.206 z M439.658,257.517 C439.336,257.516 439.036,257.679 438.862,257.95 C438.688,258.221 438.664,258.561 438.799,258.854 L438.226,259.307 C438.025,259.456 437.895,259.68 437.863,259.927 C437.832,260.176 437.903,260.425 438.059,260.619 C438.234,260.85 438.509,260.983 438.799,260.977 C439.005,260.98 439.208,260.913 439.371,260.786 L441.758,258.913 L441.758,258.913 L440.23,257.72 L440.23,257.72 C440.066,257.594 439.865,257.523 439.658,257.517 z M431.771,251.396 C431.37,251.393 431.012,251.646 430.882,252.025 C430.753,252.404 430.88,252.823 431.198,253.067 L435.136,256.133 C435.301,256.256 435.502,256.323 435.708,256.324 C435.998,256.33 436.273,256.196 436.448,255.966 C436.602,255.772 436.674,255.523 436.644,255.278 C436.615,255.031 436.489,254.806 436.293,254.654 L432.344,251.587 C432.18,251.461 431.977,251.394 431.771,251.396 z M425.924,246.624 L420.937,246.624 C420.577,246.583 420.226,246.752 420.033,247.059 C419.84,247.366 419.84,247.755 420.033,248.061 C420.226,248.368 420.577,248.537 420.937,248.497 L425.28,248.497 L427.261,250.036 C427.423,250.166 427.625,250.238 427.833,250.239 C428.123,250.234 428.395,250.098 428.573,249.869 C428.726,249.673 428.795,249.424 428.764,249.178 C428.732,248.931 428.603,248.708 428.406,248.557 L426.831,247.363 L426.831,247.363 L425.924,246.659 z" fill="#000000" opacity="0.5"/>
    <path d="M415.997,297.285 L411.01,297.285 C410.65,297.245 410.299,297.414 410.105,297.721 C409.913,298.027 409.913,298.416 410.105,298.723 C410.299,299.03 410.65,299.199 411.01,299.159 L415.997,299.159 C416.358,299.199 416.708,299.03 416.902,298.723 C417.094,298.416 417.094,298.027 416.902,297.721 C416.708,297.414 416.358,297.245 415.997,297.285 z M406.022,297.285 L401.023,297.285 C400.547,297.339 400.187,297.742 400.187,298.222 C400.187,298.702 400.547,299.105 401.023,299.159 L406.022,299.159 C406.499,299.105 406.859,298.702 406.859,298.222 C406.859,297.742 406.499,297.339 406.022,297.285 z M396.036,297.285 L391.096,297.285 C390.736,297.245 390.385,297.414 390.192,297.721 C390,298.027 390,298.416 390.192,298.723 C390.385,299.03 390.736,299.199 391.096,299.159 L396.083,299.159 C396.56,299.105 396.92,298.702 396.92,298.222 C396.92,297.742 396.56,297.339 396.083,297.285 z M386.049,297.285 L381.062,297.285 C380.585,297.339 380.225,297.742 380.225,298.222 C380.225,298.702 380.585,299.105 381.062,299.159 L386.049,299.159 C386.409,299.199 386.76,299.03 386.953,298.723 C387.145,298.416 387.145,298.027 386.953,297.721 C386.76,297.414 386.409,297.245 386.049,297.285 z M376.074,297.285 L371.075,297.285 C370.599,297.339 370.238,297.742 370.238,298.222 C370.238,298.702 370.599,299.105 371.075,299.159 L376.074,299.159 C376.55,299.105 376.911,298.702 376.911,298.222 C376.911,297.742 376.55,297.339 376.074,297.285 z M366.087,297.285 L361.1,297.285 C360.74,297.245 360.389,297.414 360.196,297.721 C360.003,298.027 360.003,298.416 360.196,298.723 C360.389,299.03 360.74,299.199 361.1,299.159 L366.04,299.159 C366.4,299.199 366.751,299.03 366.944,298.723 C367.136,298.416 367.136,298.027 366.944,297.721 C366.751,297.414 366.4,297.245 366.04,297.285 z M356.113,297.285 L351.34,297.285 L351.077,297.285 C350.566,297.341 350.193,297.798 350.242,298.311 C350.302,298.783 350.698,299.138 351.173,299.147 L351.268,299.147 C351.507,299.147 351.757,299.147 351.996,299.147 L356.077,299.147 C356.553,299.093 356.913,298.69 356.913,298.21 C356.913,297.73 356.553,297.327 356.077,297.273 z M347.14,298.992 C346.928,298.989 346.721,299.061 346.555,299.194 C346.125,299.558 345.726,299.957 345.362,300.388 L345.112,300.388 L345.112,300.388 L345.112,300.388 C344.521,301.146 344.058,301.997 343.739,302.905 C343.656,303.141 343.671,303.4 343.781,303.625 C343.891,303.849 344.087,304.02 344.324,304.098 C344.423,304.136 344.528,304.157 344.634,304.158 C345.032,304.152 345.384,303.899 345.517,303.526 C345.946,302.277 346.725,301.18 347.76,300.364 C348.165,300.037 348.229,299.445 347.904,299.039 C347.726,298.82 347.459,298.692 347.176,298.693 z M344.169,307.177 C343.92,307.173 343.68,307.27 343.503,307.445 C343.327,307.619 343.226,307.858 343.226,308.107 L343.226,313.142 C343.28,313.618 343.683,313.979 344.163,313.979 C344.643,313.979 345.046,313.618 345.1,313.142 L345.1,308.155 C345.1,307.641 344.683,307.224 344.169,307.224 z M345.362,316.388 C344.985,316.352 344.625,316.548 344.449,316.883 C344.274,317.218 344.318,317.626 344.563,317.915 C344.983,318.564 345.484,319.158 346.054,319.681 L346.054,319.681 L346.054,319.681 L346.054,319.681 L346.054,319.681 L346.949,319.681 C347.395,320.003 347.87,320.282 348.369,320.516 C348.493,320.572 348.627,320.601 348.763,320.6 C349.202,320.603 349.585,320.299 349.68,319.871 C349.774,319.441 349.556,319.004 349.156,318.822 C347.962,318.26 346.953,317.371 346.245,316.257 C346.072,315.989 345.776,315.828 345.458,315.827 z M358.141,320.027 L353.142,320.027 C352.665,320.081 352.305,320.484 352.305,320.964 C352.305,321.443 352.665,321.847 353.142,321.9 L358.141,321.9 C358.617,321.847 358.977,321.443 358.977,320.964 C358.977,320.484 358.617,320.081 358.141,320.027 z M368.116,320.027 L363.128,320.027 C362.768,319.986 362.417,320.156 362.224,320.462 C362.032,320.769 362.032,321.158 362.224,321.465 C362.417,321.771 362.768,321.941 363.128,321.9 L368.116,321.9 C368.476,321.941 368.827,321.771 369.02,321.465 C369.212,321.158 369.212,320.769 369.02,320.462 C368.827,320.156 368.476,319.986 368.116,320.027 z M378.103,320.027 L373.199,320.027 C372.723,320.081 372.362,320.484 372.362,320.964 C372.362,321.443 372.723,321.847 373.199,321.9 L378.198,321.9 C378.674,321.847 379.034,321.443 379.034,320.964 C379.034,320.484 378.674,320.081 378.198,320.027 z M388.077,320.027 L383.09,320.027 C382.614,320.081 382.254,320.484 382.254,320.964 C382.254,321.443 382.614,321.847 383.09,321.9 L388.077,321.9 C388.438,321.941 388.788,321.771 388.982,321.465 C389.174,321.158 389.174,320.769 388.982,320.462 C388.788,320.156 388.438,319.986 388.077,320.027 z M398.064,320.027 L393.077,320.027 C392.716,319.986 392.366,320.156 392.172,320.462 C391.98,320.769 391.98,321.158 392.172,321.465 C392.366,321.771 392.716,321.941 393.077,321.9 L398.064,321.9 C398.54,321.847 398.901,321.443 398.901,320.964 C398.901,320.484 398.54,320.081 398.064,320.027 z M408.051,320.027 L403.052,320.027 C402.575,320.081 402.215,320.484 402.215,320.964 C402.215,321.443 402.575,321.847 403.052,321.9 L408.051,321.9 C408.527,321.847 408.887,321.443 408.887,320.964 C408.887,320.484 408.527,320.081 408.051,320.027 z M418.026,320.027 L413.038,320.027 C412.678,319.986 412.327,320.156 412.134,320.462 C411.942,320.769 411.942,321.158 412.134,321.465 C412.327,321.771 412.678,321.941 413.038,321.9 L418.026,321.9 C418.386,321.941 418.737,321.771 418.93,321.465 C419.122,321.158 419.122,320.769 418.93,320.462 C418.737,320.156 418.386,319.986 418.026,320.027 z M426.998,318.953 C426.789,318.954 426.588,319.026 426.426,319.156 L425.304,320.027 L423.013,320.027 C422.537,320.081 422.177,320.484 422.177,320.964 C422.177,321.443 422.537,321.847 423.013,321.9 L425.948,321.9 L426.02,321.841 L426.187,321.841 L426.247,321.841 L426.247,321.841 L426.247,321.841 L426.247,321.841 L427.535,320.838 C427.849,320.591 427.972,320.173 427.843,319.794 C427.714,319.417 427.362,319.161 426.962,319.156 z M434.885,312.832 C434.675,312.831 434.47,312.898 434.3,313.023 L430.363,316.09 C430.044,316.333 429.917,316.752 430.047,317.131 C430.177,317.511 430.535,317.764 430.936,317.76 C431.146,317.761 431.351,317.694 431.52,317.569 L433.095,316.376 L433.095,316.376 L435.482,314.55 C435.677,314.398 435.804,314.173 435.832,313.926 C435.862,313.681 435.791,313.432 435.637,313.238 C435.464,313.011 435.194,312.878 434.909,312.88 z M439.658,308.179 C439.368,308.173 439.093,308.307 438.918,308.537 C438.7,308.811 438.653,309.185 438.799,309.503 L438.226,309.957 C437.818,310.286 437.753,310.885 438.083,311.293 C438.412,311.701 439.011,311.766 439.419,311.436 L441.805,309.575 L441.805,309.575 L440.278,308.382 L440.278,308.382 L440.278,308.382 C440.112,308.259 439.912,308.192 439.705,308.191 z M431.771,302.046 C431.481,302.051 431.209,302.187 431.031,302.416 C430.719,302.825 430.794,303.41 431.198,303.728 L435.136,306.783 C435.33,306.937 435.578,307.008 435.824,306.979 C436.071,306.95 436.295,306.823 436.448,306.628 C436.602,306.433 436.674,306.185 436.644,305.939 C436.615,305.692 436.489,305.468 436.293,305.315 L432.344,302.249 C432.181,302.119 431.979,302.047 431.771,302.046 z M425.924,297.273 L420.937,297.273 C420.577,297.233 420.226,297.402 420.033,297.709 C419.841,298.016 419.841,298.404 420.033,298.711 C420.226,299.018 420.577,299.187 420.937,299.147 L425.28,299.147 L427.261,300.686 C427.424,300.812 427.627,300.879 427.833,300.877 C428.234,300.88 428.592,300.627 428.722,300.248 C428.851,299.868 428.725,299.45 428.406,299.206 L426.831,298.013 L426.831,298.013 L425.924,297.309 z" fill="#000000" opacity="0.5"/>
    <path d="M451.148,150.025 L467.757,150.025 C469.76,150.025 471.384,151.649 471.384,153.652 L471.384,170.261 C471.384,172.265 469.76,173.888 467.757,173.888 L451.148,173.888 C449.145,173.888 447.521,172.265 447.521,170.261 L447.521,153.652 C447.521,151.649 449.145,150.025 451.148,150.025 z" fill="#FFFFFF" fill-opacity="0.8" opacity="0.8"/>
    <path d="M450.002,194.936 L468.902,194.936 C471.182,194.936 473.03,196.784 473.03,199.064 L473.03,217.964 C473.03,220.244 471.182,222.092 468.902,222.092 L450.002,222.092 C447.722,222.092 445.874,220.244 445.874,217.964 L445.874,199.064 C445.874,196.784 447.722,194.936 450.002,194.936 z" fill="#FFFFFF"/>
    <path d="M450.002,245.478 L468.902,245.478 C471.182,245.478 473.03,247.326 473.03,249.607 L473.03,268.506 C473.03,270.786 471.182,272.635 468.902,272.635 L450.002,272.635 C447.722,272.635 445.874,270.786 445.874,268.506 L445.874,249.607 C445.874,247.326 447.722,245.478 450.002,245.478 z" fill="#FFFFFF"/>
    <path d="M451.148,297.607 L467.757,297.607 C469.76,297.607 471.384,299.231 471.384,301.235 L471.384,317.843 C471.384,319.847 469.76,321.471 467.757,321.471 L451.148,321.471 C449.145,321.471 447.521,319.847 447.521,317.843 L447.521,301.235 C447.521,299.231 449.145,297.607 451.148,297.607 z" fill="#FFFFFF" fill-opacity="0.8" opacity="0.8"/>
    <path d="M57.411,76.495 L57.411,60.669 L60.685,60.669 L60.685,66.703 L66.869,66.703 L66.869,60.669 L70.155,60.669 L70.155,76.495 L66.869,76.495 L66.869,69.43 L60.685,69.43 L60.685,76.495 z" fill="#000000"/>
    <path d="M78.314,74.337 Q79.657,74.337 80.376,73.381 Q81.095,72.426 81.095,70.665 Q81.095,68.904 80.376,67.954 Q79.657,67.004 78.314,67.004 Q76.972,67.004 76.248,67.954 Q75.523,68.904 75.523,70.665 Q75.523,72.426 76.248,73.381 Q76.972,74.337 78.314,74.337 z M84.305,70.665 Q84.305,73.242 82.824,75.072 Q81.342,76.903 78.325,76.903 Q75.308,76.903 73.827,75.072 Q72.345,73.242 72.345,70.665 Q72.345,68.131 73.827,66.274 Q75.308,64.416 78.325,64.416 Q81.342,64.416 82.824,66.274 Q84.305,68.131 84.305,70.665 z" fill="#000000"/>
    <path d="M92.014,64.792 L95.117,64.792 L96.899,73.22 L98.724,64.792 L101.913,64.792 L98.52,76.495 L95.375,76.495 L93.539,67.97 L91.681,76.495 L88.503,76.495 L85.218,64.792 L88.503,64.792 L90.329,73.188 z" fill="#000000"/>
    <path d="M115.226,64.792 L118.329,64.792 L120.111,73.22 L121.937,64.792 L125.125,64.792 L121.733,76.495 L118.587,76.495 L116.751,67.97 L114.894,76.495 L111.716,76.495 L108.43,64.792 L111.716,64.792 L113.541,73.188 z" fill="#000000"/>
    <path d="M133.264,70.805 Q132.974,70.987 132.678,71.1 Q132.383,71.213 131.868,71.309 L131.181,71.438 Q130.214,71.61 129.796,71.857 Q129.087,72.275 129.087,73.156 Q129.087,73.94 129.522,74.288 Q129.957,74.637 130.579,74.637 Q131.567,74.637 132.399,74.058 Q133.231,73.478 133.264,71.943 z M131.406,69.377 Q132.254,69.269 132.619,69.108 Q133.274,68.829 133.274,68.239 Q133.274,67.519 132.775,67.245 Q132.276,66.972 131.31,66.972 Q130.225,66.972 129.774,67.508 Q129.452,67.906 129.345,68.582 L126.392,68.582 Q126.489,67.047 127.251,66.059 Q128.464,64.513 131.417,64.513 Q133.339,64.513 134.831,65.275 Q136.323,66.038 136.323,68.153 L136.323,73.521 Q136.323,74.079 136.345,74.874 Q136.377,75.475 136.527,75.69 Q136.678,75.904 136.978,76.044 L136.978,76.495 L133.65,76.495 Q133.511,76.141 133.457,75.829 Q133.403,75.518 133.371,75.121 Q132.738,75.808 131.911,76.291 Q130.923,76.86 129.678,76.86 Q128.089,76.86 127.053,75.953 Q126.016,75.045 126.016,73.381 Q126.016,71.223 127.681,70.257 Q128.593,69.731 130.365,69.505 z" fill="#000000"/>
    <path d="M141.423,72.759 Q141.52,73.575 141.842,73.918 Q142.411,74.53 143.946,74.53 Q144.848,74.53 145.38,74.262 Q145.911,73.993 145.911,73.456 Q145.911,72.941 145.482,72.673 Q145.052,72.404 142.293,71.749 Q140.307,71.255 139.491,70.515 Q138.675,69.785 138.675,68.41 Q138.675,66.789 139.947,65.624 Q141.219,64.459 143.528,64.459 Q145.718,64.459 147.097,65.334 Q148.477,66.209 148.681,68.357 L145.621,68.357 Q145.557,67.766 145.288,67.423 Q144.784,66.8 143.571,66.8 Q142.572,66.8 142.148,67.111 Q141.724,67.423 141.724,67.841 Q141.724,68.367 142.175,68.604 Q142.626,68.85 145.364,69.452 Q147.189,69.881 148.101,70.751 Q149.003,71.631 149.003,72.952 Q149.003,74.691 147.709,75.792 Q146.416,76.892 143.71,76.892 Q140.951,76.892 139.636,75.727 Q138.32,74.562 138.32,72.759 z" fill="#000000"/>
    <path d="M157.85,78.739 L158.237,78.76 Q158.687,78.782 159.095,78.728 Q159.503,78.674 159.783,78.481 Q160.051,78.299 160.282,77.719 Q160.513,77.139 160.47,77.01 L156.175,64.792 L159.579,64.792 L162.134,73.424 L164.55,64.792 L167.803,64.792 L163.787,76.302 Q162.628,79.63 161.951,80.43 Q161.275,81.23 159.246,81.23 Q158.838,81.23 158.591,81.224 Q158.344,81.219 157.85,81.187 z" fill="#000000"/>
    <path d="M174.857,74.337 Q176.199,74.337 176.918,73.381 Q177.637,72.426 177.637,70.665 Q177.637,68.904 176.918,67.954 Q176.199,67.004 174.857,67.004 Q173.515,67.004 172.79,67.954 Q172.065,68.904 172.065,70.665 Q172.065,72.426 172.79,73.381 Q173.515,74.337 174.857,74.337 z M180.848,70.665 Q180.848,73.242 179.366,75.072 Q177.884,76.903 174.867,76.903 Q171.85,76.903 170.369,75.072 Q168.887,73.242 168.887,70.665 Q168.887,68.131 170.369,66.274 Q171.85,64.416 174.867,64.416 Q177.884,64.416 179.366,66.274 Q180.848,68.131 180.848,70.665 z" fill="#000000"/>
    <path d="M186.087,64.792 L186.087,71.846 Q186.087,72.844 186.323,73.349 Q186.742,74.24 187.966,74.24 Q189.533,74.24 190.113,72.973 Q190.414,72.286 190.414,71.159 L190.414,64.792 L193.517,64.792 L193.517,76.495 L190.543,76.495 L190.543,74.841 Q190.5,74.895 190.328,75.164 Q190.156,75.432 189.92,75.636 Q189.2,76.28 188.529,76.516 Q187.858,76.753 186.957,76.753 Q184.358,76.753 183.456,74.884 Q182.952,73.854 182.952,71.846 L182.952,64.792 z" fill="#000000"/>
    <path d="M202.825,64.513 Q202.911,64.513 202.97,64.518 Q203.029,64.524 203.233,64.534 L203.233,67.669 Q202.943,67.637 202.718,67.627 Q202.492,67.616 202.353,67.616 Q200.506,67.616 199.872,68.818 Q199.518,69.495 199.518,70.901 L199.518,76.495 L196.437,76.495 L196.437,64.792 L199.357,64.792 L199.357,66.832 Q200.066,65.662 200.592,65.232 Q201.451,64.513 202.825,64.513 z" fill="#000000"/>
    <path d="M64.701,37.452 L63.524,38.595 Q62.973,38.565 62.372,38.398 Q61.772,38.231 61.153,37.938 Q60.535,37.645 59.504,36.936 Q58.01,36.667 57.04,35.518 Q56.07,34.37 56.07,32.87 Q56.07,31.036 57.318,29.835 Q58.567,28.634 60.477,28.634 Q62.375,28.634 63.632,29.826 Q64.889,31.018 64.889,32.823 Q64.889,34.341 63.94,35.489 Q62.99,36.638 61.484,36.936 L61.795,37.054 Q63.242,37.61 63.881,37.61 Q64.233,37.61 64.701,37.452 z M60.477,29.747 Q59.094,29.747 58.192,30.638 Q57.289,31.528 57.289,32.882 Q57.289,34.2 58.197,35.076 Q59.106,35.952 60.477,35.952 Q61.83,35.952 62.756,35.056 Q63.682,34.159 63.682,32.847 Q63.682,31.505 62.774,30.626 Q61.865,29.747 60.477,29.747 z" fill="#000000"/>
    <path d="M72.02,28.751 L73.197,28.751 L73.197,33.397 Q73.197,34.341 73.06,34.821 Q72.922,35.302 72.72,35.621 Q72.518,35.94 72.225,36.192 Q71.252,37.03 69.682,37.03 Q68.082,37.03 67.115,36.198 Q66.822,35.94 66.62,35.621 Q66.418,35.302 66.286,34.839 Q66.154,34.376 66.154,33.386 L66.154,28.751 L67.332,28.751 L67.332,33.397 Q67.332,34.552 67.596,35.003 Q67.859,35.454 68.399,35.726 Q68.938,35.999 69.67,35.999 Q70.713,35.999 71.369,35.454 Q71.715,35.161 71.867,34.763 Q72.02,34.364 72.02,33.397 z" fill="#000000"/>
    <path d="M74.82,28.751 L79.461,28.751 L79.461,29.794 L75.992,29.794 L75.992,32.29 L79.344,32.29 L79.344,33.339 L75.992,33.339 L75.992,35.882 L79.572,35.882 L79.572,36.925 L74.82,36.925 z" fill="#000000"/>
    <path d="M82.848,33.503 L81.957,32.964 Q81.119,32.454 80.765,31.959 Q80.41,31.464 80.41,30.819 Q80.41,29.852 81.081,29.249 Q81.752,28.645 82.824,28.645 Q83.85,28.645 84.705,29.22 L84.705,30.55 Q83.82,29.7 82.801,29.7 Q82.227,29.7 81.858,29.967 Q81.488,30.233 81.488,30.649 Q81.488,31.018 81.758,31.341 Q82.027,31.663 82.631,32.014 L83.527,32.542 Q85.027,33.432 85.027,34.815 Q85.027,35.8 84.368,36.415 Q83.709,37.03 82.654,37.03 Q81.442,37.03 80.445,36.286 L80.445,34.798 Q81.395,35.999 82.643,35.999 Q83.193,35.999 83.56,35.691 Q83.926,35.384 83.926,34.921 Q83.926,34.171 82.848,33.503 z" fill="#000000"/>
    <path d="M85.619,28.739 L92.457,28.739 L92.457,29.782 L89.604,29.782 L89.604,36.936 L88.426,36.936 L88.426,29.782 L85.619,29.782 z" fill="#000000"/>
    <path d="M93.576,28.751 L94.748,28.751 L94.748,36.936 L93.576,36.936 z" fill="#000000"/>
    <path d="M100.584,28.634 Q102.483,28.634 103.745,29.835 Q105.008,31.036 105.008,32.847 Q105.008,34.657 103.734,35.844 Q102.459,37.03 100.52,37.03 Q98.668,37.03 97.435,35.844 Q96.201,34.657 96.201,32.87 Q96.201,31.036 97.443,29.835 Q98.686,28.634 100.584,28.634 z M100.631,29.747 Q99.225,29.747 98.319,30.626 Q97.414,31.505 97.414,32.87 Q97.414,34.194 98.322,35.073 Q99.231,35.952 100.596,35.952 Q101.967,35.952 102.884,35.056 Q103.801,34.159 103.801,32.823 Q103.801,31.522 102.884,30.635 Q101.967,29.747 100.631,29.747 z" fill="#000000"/>
    <path d="M112.947,28.751 L114.061,28.751 L114.061,36.936 L113.053,36.936 L107.58,30.638 L107.58,36.936 L106.479,36.936 L106.479,28.751 L107.428,28.751 L112.947,35.102 z" fill="#000000"/>
    <path d="M241.342,91.811 L250.613,132.879 L258.166,116.772 L273.474,115.412 L241.342,91.811 z" fill="#000000"/>
    <path d="M250.303,136.053 L239.755,89.341 L276.302,116.271 L258.858,117.81 z M243.001,94.293 L250.995,129.73 L257.462,115.793 L270.587,114.6 z" fill="#FFFFFF"/>
    <g opacity="0.5">
      <path d="M179.966,147.484 L316.285,147.484 L316.285,164.797 L179.966,164.797 z" fill="#FFFFFF"/>
    </g>
    <g opacity="0.5">
      <path d="M179.966,168.853 L264.704,168.853 L264.704,186.166 L179.966,186.166 z" fill="#FFFFFF"/>
    </g>
    <g opacity="0.5">
      <path d="M179.966,324.501 L241.402,324.501 L241.402,330.73 L179.966,330.73 z" fill="#FFFFFF"/>
    </g>
    <g opacity="0.5">
      <path d="M191.82,265.058 L304.431,265.058 L304.431,271.286 L191.82,271.286 z" fill="#FFFFFF"/>
    </g>
    <g opacity="0.5">
      <path d="M191.82,273.362 L276.081,273.362 L276.081,279.591 L191.82,279.591 z" fill="#FFFFFF"/>
    </g>
    <g opacity="0.5">
      <path d="M179.966,332.77 L264.704,332.77 L264.704,338.998 L179.966,338.998 z" fill="#FFFFFF"/>
    </g>
    <g opacity="0.5">
      <path d="M387.171,332.77 L471.909,332.77 L471.909,338.998 L387.171,338.998 z" fill="#FFFFFF"/>
    </g>
    <path d="M615.649,224.455 L431.902,224.455 C425.312,224.455 419.971,219.113 419.971,212.523 L419.971,202.978 C419.971,196.388 425.312,191.046 431.902,191.046 L615.649,191.046 L637.126,207.75 z" fill="#F4B06C"/>
    <path d="M613.597,197.012 L627.414,207.75 L613.597,218.489 L431.902,218.489 C428.608,218.489 425.936,215.817 425.936,212.523 L425.936,202.978 C425.936,199.683 428.608,197.012 431.902,197.012 L613.597,197.012 M615.649,191.046 L431.902,191.046 C425.312,191.046 419.971,196.388 419.971,202.978 L419.971,212.523 C419.971,219.113 425.312,224.455 431.902,224.455 L615.649,224.455 L637.126,207.75 L615.649,191.046 z" fill="#465775"/>
    <path d="M560.764,275.761 L377.017,275.761 C370.427,275.761 365.085,270.419 365.085,263.829 L365.085,254.284 C365.085,247.694 370.427,242.352 377.017,242.352 L560.764,242.352 L582.241,259.056 z" fill="#F7931E"/>
    <path d="M558.711,248.318 L572.528,259.056 L558.711,269.795 L377.017,269.795 C373.722,269.795 371.051,267.123 371.051,263.829 L371.051,254.284 C371.051,250.989 373.722,248.318 377.017,248.318 L558.711,248.318 M560.764,242.352 L377.017,242.352 C370.427,242.352 365.085,247.694 365.085,254.284 L365.085,263.829 C365.085,270.419 370.427,275.761 377.017,275.761 L560.764,275.761 L582.241,259.056 L560.764,242.352 z" fill="#465775"/>
    <path d="M653.83,327.067 L470.083,327.067 C463.493,327.067 458.152,321.725 458.152,315.135 L458.152,305.59 C458.152,299 463.493,293.658 470.083,293.658 L653.83,293.658 L675.307,310.362 z" fill="#F4B06C"/>
    <path d="M651.778,299.624 L665.595,310.362 L651.778,321.101 L470.083,321.101 C466.789,321.101 464.118,318.429 464.118,315.135 L464.118,305.59 C464.118,302.295 466.789,299.624 470.083,299.624 L651.778,299.624 M653.83,293.658 L470.083,293.658 C463.493,293.658 458.152,299 458.152,305.59 L458.152,315.135 C458.152,321.725 463.493,327.067 470.083,327.067 L653.83,327.067 L675.307,310.362 L653.83,293.658 z" fill="#465775"/>
    <path d="M700.364,180.308 L516.617,180.308 C510.027,180.308 504.685,174.966 504.685,168.376 L504.685,158.831 C504.685,152.241 510.027,146.899 516.617,146.899 L700.364,146.899 L721.841,163.603 z" fill="#F7931E"/>
    <path d="M698.311,152.865 L712.128,163.603 L698.311,174.342 L516.617,174.342 C513.322,174.342 510.651,171.67 510.651,168.376 L510.651,158.831 C510.651,155.536 513.322,152.865 516.617,152.865 L698.311,152.865 M700.364,146.899 L516.617,146.899 C510.027,146.899 504.685,152.241 504.685,158.831 L504.685,168.376 C504.685,174.966 510.027,180.308 516.617,180.308 L700.364,180.308 L721.841,163.603 L700.364,146.899 z" fill="#465775"/>
    <path d="M522.583,155.227 L526.448,155.227 L532.211,171.55 L528.513,171.55 L527.439,168.197 L521.473,168.197 L520.363,171.55 L516.784,171.55 z M522.356,165.381 L526.544,165.381 L524.48,158.962 z" fill="#153B50"/>
    <path d="M379.88,252.387 C381.404,250.977 383.44,250.253 385.511,250.384 C387.583,250.515 389.51,251.488 390.845,253.079 C391.501,253.965 391.891,255.021 391.967,256.121 L388.555,256.121 C388.408,255.474 388.124,254.868 387.719,254.343 C386.955,253.59 385.902,253.207 384.833,253.292 C383.763,253.377 382.783,253.921 382.147,254.785 C381.379,256.063 381.013,257.543 381.097,259.033 C380.991,260.491 381.383,261.941 382.207,263.149 C382.882,264.023 383.93,264.528 385.035,264.509 C386.066,264.563 387.06,264.119 387.707,263.316 C388.114,262.748 388.398,262.103 388.543,261.419 L391.931,261.419 C391.701,263.077 390.915,264.609 389.7,265.762 C388.435,266.897 386.78,267.496 385.082,267.432 C383.011,267.54 381.001,266.712 379.606,265.177 C376.858,261.314 376.97,256.106 379.88,252.363 z" fill="#153B50"/>
    <path d="M480.941,302.404 C482.075,302.771 483.055,303.5 483.733,304.48 C484.302,305.266 484.708,306.159 484.926,307.105 C485.124,307.994 485.228,308.902 485.237,309.813 C485.296,311.734 484.843,313.638 483.924,315.326 C482.835,317.303 480.713,318.484 478.459,318.368 L471.42,318.368 L471.42,301.986 L478.459,301.986 C479.302,302.009 480.137,302.15 480.941,302.404 z M474.701,304.79 L474.701,315.529 L477.851,315.529 C479.383,315.586 480.763,314.608 481.216,313.142 C481.585,312.147 481.763,311.09 481.741,310.028 C481.816,308.709 481.545,307.393 480.953,306.21 C480.246,305.226 479.052,304.712 477.851,304.874 z" fill="#153B50"/>
    <path d="M445.373,201.116 C445.885,201.845 446.149,202.72 446.125,203.61 C446.163,204.469 445.897,205.314 445.373,205.996 C445.025,206.39 444.597,206.706 444.12,206.927 C444.887,207.187 445.544,207.7 445.982,208.383 C446.423,209.099 446.643,209.929 446.614,210.769 C446.631,211.687 446.381,212.59 445.898,213.37 C445.587,213.872 445.181,214.309 444.705,214.659 C444.158,215.066 443.526,215.344 442.855,215.47 C442.098,215.629 441.326,215.704 440.553,215.697 L433.203,215.697 L433.203,199.374 L441.209,199.374 C442.795,199.26 444.341,199.907 445.373,201.116 z M436.52,202.214 L436.52,205.794 L440.481,205.794 C441.082,205.819 441.68,205.683 442.211,205.4 C442.678,205.075 442.929,204.522 442.867,203.956 C442.937,203.319 442.583,202.709 441.996,202.453 C441.354,202.256 440.686,202.163 440.016,202.178 z M436.52,208.514 L436.52,212.917 L440.481,212.917 C441.044,212.943 441.606,212.845 442.128,212.63 C442.867,212.239 443.293,211.435 443.201,210.602 C443.266,209.855 442.848,209.151 442.163,208.848 C441.643,208.643 441.087,208.55 440.529,208.574 z" fill="#153B50"/>
    <path d="M680.235,215.745 L640.467,215.745 C639.83,215.798 639.216,215.488 638.882,214.944 C638.547,214.4 638.547,213.713 638.882,213.169 C639.216,212.624 639.83,212.314 640.467,212.368 L680.235,212.368 C680.872,212.314 681.485,212.624 681.821,213.169 C682.155,213.713 682.155,214.4 681.821,214.944 C681.485,215.488 680.872,215.798 680.235,215.745 z" fill="#CCCCCC"/>
    <path d="M650.322,202.548 L634.406,202.548 C633.47,202.548 632.711,201.789 632.711,200.854 C632.711,199.918 633.47,199.16 634.406,199.16 L650.322,199.16 C651.258,199.16 652.017,199.918 652.017,200.854 C652.017,201.789 651.258,202.548 650.322,202.548 z" fill="#CCCCCC"/>
    <path d="M734.619,171.896 L721.101,171.896 C720.464,171.95 719.85,171.639 719.516,171.095 C719.181,170.551 719.181,169.864 719.516,169.32 C719.85,168.776 720.464,168.466 721.101,168.519 L734.619,168.519 C735.256,168.466 735.87,168.776 736.204,169.32 C736.539,169.864 736.539,170.551 736.204,171.095 C735.87,171.639 735.256,171.95 734.619,171.896 z" fill="#CCCCCC"/>
    <path d="M726.184,157.506 L721.005,157.506 C720.07,157.506 719.311,156.747 719.311,155.812 C719.311,154.877 720.07,154.118 721.005,154.118 L726.184,154.118 C727.119,154.118 727.878,154.877 727.878,155.812 C727.878,156.747 727.119,157.506 726.184,157.506 z" fill="#CCCCCC"/>
    <path d="M744.165,164.701 L728.26,164.701 C727.623,164.755 727.009,164.445 726.675,163.9 C726.34,163.356 726.34,162.669 726.675,162.125 C727.009,161.581 727.623,161.271 728.26,161.324 L744.165,161.324 C744.802,161.271 745.415,161.581 745.749,162.125 C746.084,162.669 746.084,163.356 745.749,163.9 C745.415,164.445 744.802,164.755 744.165,164.701 z" fill="#CCCCCC"/>
    <path d="M599.434,267.051 L581.143,267.051 C580.506,267.104 579.892,266.794 579.558,266.25 C579.223,265.706 579.223,265.019 579.558,264.475 C579.892,263.93 580.506,263.62 581.143,263.674 L599.434,263.674 C600.071,263.62 600.685,263.93 601.019,264.475 C601.354,265.019 601.354,265.706 601.019,266.25 C600.685,266.794 600.071,267.104 599.434,267.051 z" fill="#CCCCCC"/>
    <path d="M608.096,259.557 L594.566,259.557 C593.688,259.484 593.014,258.75 593.014,257.869 C593.014,256.989 593.688,256.255 594.566,256.181 L608.096,256.181 C608.734,256.127 609.347,256.437 609.681,256.981 C610.016,257.526 610.016,258.213 609.681,258.757 C609.347,259.301 608.734,259.611 608.096,259.557 z" fill="#CCCCCC"/>
    <path d="M586.214,253.854 L582.241,253.854 C581.305,253.854 580.546,253.095 580.546,252.16 C580.546,251.224 581.305,250.466 582.241,250.466 L586.214,250.466 C587.149,250.466 587.908,251.224 587.908,252.16 C587.908,253.095 587.149,253.854 586.214,253.854 z" fill="#CCCCCC"/>
    <path d="M680.044,318.225 L676.059,318.225 C675.181,318.151 674.507,317.417 674.507,316.537 C674.507,315.656 675.181,314.923 676.059,314.849 L680.044,314.849 C680.922,314.923 681.596,315.656 681.596,316.537 C681.596,317.417 680.922,318.151 680.044,318.225 z" fill="#CCCCCC"/>
    <path d="M704.898,318.225 L686.594,318.225 C685.718,318.151 685.042,317.417 685.042,316.537 C685.042,315.656 685.718,314.923 686.594,314.849 L704.898,314.849 C705.535,314.795 706.148,315.105 706.482,315.649 C706.817,316.193 706.817,316.881 706.482,317.425 C706.148,317.969 705.535,318.279 704.898,318.225 z" fill="#CCCCCC"/>
    <path d="M689.494,306.222 L673.589,306.222 C672.654,306.222 671.895,305.463 671.895,304.528 C671.895,303.592 672.654,302.833 673.589,302.833 L689.494,302.833 C690.429,302.833 691.188,303.592 691.188,304.528 C691.188,305.463 690.429,306.222 689.494,306.222 z" fill="#CCCCCC"/>
    <path d="M183.677,285.139 C182.029,285.139 180.694,283.804 180.694,282.156 L180.694,262.493 C180.694,260.845 182.029,259.51 183.677,259.51 C185.325,259.51 186.66,260.845 186.66,262.493 L186.66,282.12 C186.669,282.917 186.359,283.686 185.798,284.252 C185.239,284.82 184.474,285.139 183.677,285.139 z" fill="#FFFFFF" opacity="0.5"/>
    <path d="M88.713,153.438 C78.92,153.445 70.975,145.509 70.971,135.716 C70.966,125.921 78.903,117.979 88.697,117.977 C98.491,117.974 106.431,125.914 106.431,135.707 C106.418,145.489 98.495,153.417 88.713,153.438 z M88.713,123.609 C82.028,123.601 76.605,129.018 76.602,135.704 C76.6,142.388 82.021,147.808 88.705,147.806 C95.39,147.804 100.807,142.381 100.8,135.695 C100.781,129.03 95.378,123.634 88.713,123.621 z" fill="#153B50"/>
    <path d="M328.801,437.1 C321.124,437.1 314.901,430.876 314.901,423.2 C314.901,415.523 321.124,409.299 328.801,409.299 C336.478,409.299 342.701,415.523 342.701,423.2 C342.688,430.872 336.473,437.087 328.801,437.1 z M328.801,413.714 C323.561,413.707 319.308,417.951 319.303,423.191 C319.299,428.432 323.545,432.683 328.786,432.685 C334.026,432.688 338.275,428.44 338.275,423.2 C338.243,417.98 334.021,413.753 328.801,413.714 z" fill="#153B50"/>
    <path d="M174.883,435.835 L174.883,435.835 C174.297,435.836 173.735,435.605 173.32,435.191 L160.923,422.782 C160.506,422.372 160.271,421.811 160.271,421.225 C160.271,420.639 160.506,420.078 160.923,419.668 L173.32,407.259 C174.201,406.438 175.566,406.438 176.446,407.259 L188.855,419.668 C189.712,420.529 189.712,421.921 188.855,422.782 L176.446,435.191 C176.031,435.605 175.469,435.836 174.883,435.835 z M165.588,421.219 L174.871,430.502 L184.154,421.219 L174.871,411.948 z" fill="#153B50"/>
    <path d="M577.468,106.033 C576.882,106.033 576.32,105.802 575.905,105.389 L563.496,92.992 C562.638,92.127 562.638,90.731 563.496,89.866 L575.905,77.457 C576.77,76.599 578.166,76.599 579.031,77.457 L591.44,89.866 C592.298,90.731 592.298,92.127 591.44,92.992 L579.031,105.389 C578.616,105.802 578.054,106.033 577.468,106.033 z M568.185,91.429 L577.468,100.76 L586.751,91.489 L577.468,82.206 z" fill="#153B50"/>
    <path d="M591.607,404.718 C590.713,404.72 589.905,404.182 589.563,403.355 C589.221,402.529 589.41,401.578 590.044,400.947 L609.492,381.499 C610.355,380.636 611.756,380.636 612.619,381.499 C613.481,382.361 613.481,383.762 612.619,384.625 L593.17,404.073 C592.755,404.486 592.193,404.718 591.607,404.718 z" fill="#153B50"/>
    <path d="M611.055,404.718 C610.47,404.716 609.909,404.485 609.492,404.073 L590.044,384.625 C589.18,383.762 589.18,382.361 590.044,381.499 C590.908,380.636 592.306,380.636 593.17,381.499 L612.619,400.947 C613.252,401.578 613.442,402.529 613.099,403.355 C612.757,404.182 611.949,404.72 611.055,404.718 z" fill="#153B50"/>
    <path d="M500.354,46.256 C499.278,46.25 498.361,45.468 498.187,44.405 C498.013,43.343 498.631,42.31 499.65,41.961 L525.697,33.095 C526.853,32.703 528.108,33.323 528.501,34.479 C528.893,35.636 528.273,36.891 527.117,37.283 L501.07,46.137 C500.84,46.217 500.597,46.257 500.354,46.256 z" fill="#153B50"/>
    <path d="M517.81,54.859 C516.864,54.857 516.024,54.252 515.722,53.355 L506.833,27.308 C506.44,26.152 507.061,24.897 508.217,24.505 C509.373,24.112 510.628,24.732 511.021,25.889 L519.958,51.935 C520.352,53.088 519.738,54.344 518.585,54.739 C518.335,54.819 518.074,54.86 517.81,54.859 z" fill="#153B50"/>
    <path d="M207.647,60.669 L214.675,60.669 L214.675,77.016 L207.647,77.016 z" fill="#FFFFFF"/>
    <path d="M206.8,53.868 L208.495,53.868 L208.495,83.697 L206.8,83.697 z" fill="#465775"/>
    <path d="M82.807,340.239 C82.426,340.239 82.053,340.14 81.721,339.953 L61.437,328.451 C60.751,328.057 60.328,327.327 60.328,326.536 C60.328,325.745 60.751,325.014 61.437,324.621 L81.542,312.796 C82.221,312.387 83.068,312.375 83.758,312.767 C84.447,313.157 84.873,313.889 84.871,314.682 L85.074,338.008 C85.075,338.801 84.657,339.536 83.976,339.941 C83.622,340.147 83.217,340.251 82.807,340.239 z M66.926,326.494 L80.576,334.226 L80.444,318.535 z" fill="#153B50"/>
    <path d="M349.109,27.738 C348.724,27.738 348.346,27.639 348.011,27.452 L327.727,15.95 C327.047,15.555 326.628,14.827 326.628,14.041 C326.628,13.254 327.047,12.526 327.727,12.131 L347.844,0.295 C348.526,-0.098 349.369,-0.098 350.051,0.295 C350.734,0.691 351.159,1.416 351.173,2.204 L351.364,25.543 C351.361,26.329 350.95,27.057 350.278,27.464 C349.921,27.66 349.517,27.755 349.109,27.738 z M333.216,13.993 L346.866,21.725 L346.734,6.046 z" fill="#153B50"/>
    <path d="M487.336,410.373 C486.895,410.382 486.468,410.219 486.143,409.92 L480.178,404.36 L480.178,404.36 L474.212,398.8 C473.765,398.39 473.573,397.772 473.709,397.183 C473.845,396.592 474.288,396.121 474.868,395.948 L490.463,391.175 C491.038,390.997 491.665,391.138 492.109,391.545 C492.551,391.96 492.742,392.576 492.61,393.168 L488.935,409.061 C488.778,409.642 488.323,410.096 487.742,410.254 C487.612,410.309 487.476,410.349 487.336,410.373 z M482.564,401.878 L486.382,405.457 L488.768,395.268 L478.782,398.334 L482.6,401.914 z" fill="#153B50"/>
    <g>
      <path d="M185.083,152.769 L186.065,152.769 L186.065,155.733 L189.795,155.733 L189.795,152.769 L190.777,152.769 L190.777,159.942 L189.795,159.942 L189.795,156.587 L186.065,156.587 L186.065,159.942 L185.083,159.942 z" fill="#FFFFFF"/>
      <path d="M194.239,159.375 Q195.113,159.375 195.437,158.714 Q195.762,158.052 195.762,157.242 Q195.762,156.509 195.528,156.05 Q195.157,155.327 194.248,155.327 Q193.443,155.327 193.077,155.943 Q192.71,156.558 192.71,157.427 Q192.71,158.262 193.077,158.819 Q193.443,159.375 194.239,159.375 z M194.273,154.561 Q195.284,154.561 195.982,155.235 Q196.68,155.908 196.68,157.217 Q196.68,158.482 196.065,159.307 Q195.45,160.132 194.156,160.132 Q193.077,160.132 192.442,159.402 Q191.807,158.672 191.807,157.442 Q191.807,156.123 192.476,155.342 Q193.145,154.561 194.273,154.561 z" fill="#FFFFFF"/>
      <path d="M198.13,154.712 L199.136,158.833 L200.157,154.712 L201.143,154.712 L202.168,158.809 L203.238,154.712 L204.117,154.712 L202.598,159.942 L201.685,159.942 L200.62,155.894 L199.59,159.942 L198.677,159.942 L197.168,154.712 z" fill="#FFFFFF"/>
      <path d="M208.13,154.712 L209.136,158.833 L210.157,154.712 L211.143,154.712 L212.168,158.809 L213.238,154.712 L214.117,154.712 L212.598,159.942 L211.685,159.942 L210.62,155.894 L209.59,159.942 L208.677,159.942 L207.168,154.712 z" fill="#FFFFFF"/>
      <path d="M215.62,158.55 Q215.62,158.931 215.899,159.151 Q216.177,159.37 216.558,159.37 Q217.022,159.37 217.456,159.156 Q218.189,158.799 218.189,157.989 L218.189,157.281 Q218.028,157.383 217.774,157.451 Q217.52,157.52 217.276,157.549 L216.743,157.617 Q216.265,157.681 216.026,157.818 Q215.62,158.047 215.62,158.55 z M217.749,156.773 Q218.052,156.734 218.155,156.519 Q218.213,156.402 218.213,156.182 Q218.213,155.733 217.893,155.53 Q217.574,155.327 216.978,155.327 Q216.289,155.327 216.001,155.699 Q215.84,155.904 215.791,156.309 L214.971,156.309 Q214.995,155.342 215.598,154.964 Q216.202,154.585 216.997,154.585 Q217.92,154.585 218.496,154.937 Q219.068,155.288 219.068,156.031 L219.068,159.043 Q219.068,159.18 219.124,159.263 Q219.18,159.346 219.361,159.346 Q219.419,159.346 219.493,159.339 Q219.566,159.331 219.649,159.317 L219.649,159.966 Q219.444,160.025 219.336,160.039 Q219.229,160.054 219.043,160.054 Q218.589,160.054 218.384,159.732 Q218.277,159.561 218.233,159.248 Q217.964,159.6 217.461,159.859 Q216.958,160.117 216.353,160.117 Q215.625,160.117 215.164,159.676 Q214.702,159.234 214.702,158.57 Q214.702,157.842 215.157,157.442 Q215.611,157.041 216.348,156.949 z" fill="#FFFFFF"/>
      <path d="M221.031,158.301 Q221.07,158.741 221.25,158.975 Q221.582,159.4 222.403,159.4 Q222.891,159.4 223.262,159.187 Q223.633,158.975 223.633,158.531 Q223.633,158.194 223.335,158.018 Q223.145,157.91 222.583,157.769 L221.885,157.593 Q221.216,157.427 220.899,157.222 Q220.332,156.866 220.332,156.236 Q220.332,155.493 220.867,155.034 Q221.402,154.575 222.305,154.575 Q223.487,154.575 224.009,155.269 Q224.336,155.708 224.327,156.216 L223.496,156.216 Q223.472,155.918 223.286,155.674 Q222.984,155.327 222.237,155.327 Q221.739,155.327 221.482,155.518 Q221.226,155.708 221.226,156.021 Q221.226,156.363 221.563,156.568 Q221.758,156.69 222.139,156.783 L222.72,156.924 Q223.667,157.154 223.99,157.368 Q224.502,157.705 224.502,158.428 Q224.502,159.126 223.973,159.634 Q223.443,160.142 222.359,160.142 Q221.192,160.142 220.706,159.612 Q220.22,159.082 220.186,158.301 z" fill="#FFFFFF"/>
      <path d="M231.553,154.712 L232.525,154.712 Q232.339,155.215 231.7,157.007 Q231.221,158.355 230.899,159.204 Q230.137,161.206 229.825,161.646 Q229.512,162.085 228.75,162.085 Q228.565,162.085 228.465,162.071 Q228.365,162.056 228.218,162.017 L228.218,161.216 Q228.448,161.28 228.55,161.294 Q228.653,161.309 228.731,161.309 Q228.975,161.309 229.09,161.228 Q229.204,161.148 229.283,161.031 Q229.307,160.992 229.458,160.63 Q229.61,160.269 229.678,160.093 L227.744,154.712 L228.741,154.712 L230.142,158.97 z" fill="#FFFFFF"/>
      <path d="M235.362,159.375 Q236.236,159.375 236.56,158.714 Q236.885,158.052 236.885,157.242 Q236.885,156.509 236.651,156.05 Q236.28,155.327 235.371,155.327 Q234.566,155.327 234.2,155.943 Q233.833,156.558 233.833,157.427 Q233.833,158.262 234.2,158.819 Q234.566,159.375 235.362,159.375 z M235.396,154.561 Q236.407,154.561 237.105,155.235 Q237.803,155.908 237.803,157.217 Q237.803,158.482 237.188,159.307 Q236.573,160.132 235.279,160.132 Q234.2,160.132 233.565,159.402 Q232.93,158.672 232.93,157.442 Q232.93,156.123 233.599,155.342 Q234.268,154.561 235.396,154.561 z" fill="#FFFFFF"/>
      <path d="M239.727,154.712 L239.727,158.184 Q239.727,158.584 239.854,158.838 Q240.088,159.307 240.728,159.307 Q241.646,159.307 241.978,158.487 Q242.159,158.047 242.159,157.281 L242.159,154.712 L243.037,154.712 L243.037,159.942 L242.207,159.942 L242.217,159.17 Q242.046,159.468 241.792,159.673 Q241.289,160.083 240.572,160.083 Q239.453,160.083 239.048,159.336 Q238.828,158.936 238.828,158.267 L238.828,154.712 z" fill="#FFFFFF"/>
      <path d="M244.434,154.712 L245.269,154.712 L245.269,155.616 Q245.371,155.352 245.772,154.973 Q246.172,154.595 246.695,154.595 Q246.719,154.595 246.778,154.6 Q246.836,154.605 246.978,154.619 L246.978,155.547 Q246.9,155.533 246.834,155.528 Q246.768,155.523 246.69,155.523 Q246.026,155.523 245.669,155.95 Q245.313,156.377 245.313,156.934 L245.313,159.942 L244.434,159.942 z" fill="#FFFFFF"/>
    </g>
  </g>
</svg>
