<?xml version="1.0" encoding="UTF-8"?>
<!DOCTYPE svg PUBLIC "-//W3C//DTD SVG 1.1//EN" "http://www.w3.org/Graphics/SVG/1.1/DTD/svg11.dtd">
<svg version="1.1" xmlns="http://www.w3.org/2000/svg" xmlns:xlink="http://www.w3.org/1999/xlink" x="0" y="0" width="777.06" height="437.1" viewBox="0, 0, 777.06, 437.1">
  <g id="Layer_1">
    <path d="M297.502,24.321 L565.525,24.321 C597.844,24.321 624.045,50.522 624.045,82.841 L624.045,350.864 C624.045,383.184 597.844,409.385 565.525,409.385 L297.502,409.385 C265.182,409.385 238.981,383.184 238.981,350.864 L238.981,82.841 C238.981,50.522 265.182,24.321 297.502,24.321 z" fill="#C7B299" opacity="0.41"/>
    <path d="M457.051,27.27 C449.526,27.263 443.428,21.161 443.428,13.635 C443.428,6.11 449.526,0.007 457.051,0 C464.577,-0.007 470.685,6.086 470.698,13.612 C470.698,21.15 464.59,27.263 457.051,27.27 z M457.051,4.342 C453.284,4.338 449.885,6.606 448.443,10.087 C447.001,13.567 447.802,17.574 450.469,20.235 C453.136,22.895 457.145,23.686 460.622,22.234 C464.1,20.784 466.358,17.379 466.344,13.612 C466.293,8.504 462.159,4.381 457.051,4.342 z" fill="#153B50"/>
    <path d="M634.415,182.244 C626.884,182.244 620.78,176.139 620.78,168.609 C620.78,161.078 626.884,154.974 634.415,154.974 C641.945,154.974 648.05,161.078 648.05,168.609 C648.043,176.137 641.943,182.237 634.415,182.244 z M634.415,159.316 C629.283,159.349 625.145,163.53 625.169,168.663 C625.192,173.796 629.368,177.94 634.5,177.925 C639.634,177.91 643.784,173.741 643.778,168.609 C643.775,166.133 642.786,163.76 641.028,162.016 C639.271,160.272 636.89,159.301 634.415,159.316 z" fill="#153B50"/>
    <path d="M168.734,83.743 C168.156,83.745 167.603,83.512 167.2,83.099 L155.063,70.962 C154.652,70.557 154.422,70.004 154.422,69.429 C154.422,68.853 154.652,68.3 155.063,67.895 L167.224,55.746 C168.072,54.905 169.442,54.905 170.29,55.746 L182.462,67.919 C183.304,68.767 183.304,70.137 182.462,70.985 L170.29,83.146 C169.875,83.549 169.312,83.765 168.734,83.743 z M159.628,69.405 L168.734,78.511 L177.839,69.405 L168.734,60.299 z" fill="#153B50"/>
    <path d="M355.051,423.711 C354.476,423.711 353.925,423.483 353.517,423.079 L341.345,410.906 C340.505,410.061 340.505,408.697 341.345,407.852 L353.517,395.679 C354.366,394.838 355.735,394.838 356.584,395.679 L368.744,407.852 C369.154,408.254 369.384,408.804 369.384,409.379 C369.384,409.954 369.154,410.504 368.744,410.906 L356.584,423.079 C356.176,423.483 355.625,423.711 355.051,423.711 z M345.945,409.385 L355.051,418.479 L364.156,409.385 L355.051,400.279 z" fill="#153B50"/>
    <path d="M321.916,63.775 C320.861,63.77 319.962,63.003 319.791,61.96 C319.62,60.919 320.226,59.905 321.226,59.562 L346.776,50.866 C347.91,50.481 349.141,51.089 349.526,52.224 C349.911,53.358 349.303,54.589 348.169,54.974 L322.619,63.658 C322.393,63.737 322.155,63.777 321.916,63.775 z" fill="#153B50"/>
    <path d="M339.039,72.214 C338.111,72.213 337.287,71.62 336.991,70.739 L328.295,45.213 C327.91,44.079 328.519,42.847 329.653,42.462 C330.787,42.077 332.018,42.686 332.403,43.82 L341.088,69.37 C341.277,69.914 341.242,70.512 340.989,71.031 C340.736,71.549 340.287,71.946 339.742,72.132 C339.512,72.193 339.276,72.221 339.039,72.214 z" fill="#153B50"/>
    <path d="M625.988,428.661 C624.93,428.661 624.026,427.896 623.852,426.852 C623.678,425.808 624.285,424.791 625.286,424.448 L650.836,415.763 C651.967,415.376 653.199,415.979 653.586,417.109 C653.974,418.241 653.371,419.473 652.24,419.86 L626.678,428.556 C626.455,428.625 626.222,428.661 625.988,428.661 z" fill="#153B50"/>
    <path d="M643.111,437.1 C642.179,437.1 641.352,436.507 641.051,435.625 L632.367,410.075 C631.982,408.941 632.59,407.71 633.724,407.325 C634.858,406.94 636.09,407.548 636.475,408.683 L645.159,434.233 C645.345,434.777 645.307,435.374 645.051,435.89 C644.796,436.406 644.347,436.799 643.801,436.983 C643.579,437.06 643.346,437.1 643.111,437.1 z" fill="#153B50"/>
    <path d="M198.228,107.127 L453.482,107.127 L453.482,325.759 C453.482,340.763 441.32,352.924 426.317,352.924 L198.228,352.924 L198.228,107.139 z" fill="#FFFFFF"/>
    <path d="M426.317,355.757 L198.228,355.757 C196.657,355.757 195.384,354.483 195.384,352.913 L195.384,107.127 C195.384,106.374 195.683,105.651 196.217,105.12 C196.751,104.589 197.474,104.291 198.228,104.295 L453.482,104.295 C454.235,104.291 454.959,104.589 455.492,105.12 C456.026,105.651 456.326,106.374 456.326,107.127 L456.326,325.759 C456.306,342.323 442.88,355.744 426.317,355.757 z M201.072,350.08 L426.317,350.08 C439.741,350.06 450.618,339.184 450.638,325.759 L450.638,109.971 L201.072,109.971 z" fill="#153B50"/>
    <path d="M423.051,334.186 L218.125,334.186 L218.125,125.854 L446.459,125.854 L446.459,310.778 C446.459,323.706 435.979,334.186 423.051,334.186 z" fill="#65D366"/>
    <path d="M453.482,311.34 L448.589,311.34 C448.085,311.34 447.676,310.931 447.676,310.427 C447.676,309.922 448.085,309.514 448.589,309.514 L453.482,309.514 C453.986,309.514 454.395,309.922 454.395,310.427 C454.395,310.931 453.986,311.34 453.482,311.34 z M443.697,311.34 L438.793,311.34 C438.289,311.34 437.88,310.931 437.88,310.427 C437.88,309.922 438.289,309.514 438.793,309.514 L443.697,309.514 C444.202,309.514 444.61,309.922 444.61,310.427 C444.61,310.931 444.202,311.34 443.697,311.34 z M433.901,311.34 L429.008,311.34 C428.504,311.34 428.096,310.931 428.096,310.427 C428.096,309.922 428.504,309.514 429.008,309.514 L433.901,309.514 C434.405,309.514 434.814,309.922 434.814,310.427 C434.814,310.931 434.405,311.34 433.901,311.34 z M424.104,311.34 L419.2,311.34 C418.696,311.34 418.288,310.931 418.288,310.427 C418.288,309.922 418.696,309.514 419.2,309.514 L424.093,309.514 C424.597,309.514 425.006,309.922 425.006,310.427 C425.006,310.931 424.597,311.34 424.093,311.34 z M414.32,311.34 L409.416,311.34 C408.911,311.34 408.503,310.931 408.503,310.427 C408.503,309.922 408.911,309.514 409.416,309.514 L414.32,309.514 C414.824,309.514 415.233,309.922 415.233,310.427 C415.233,310.931 414.824,311.34 414.32,311.34 z M404.524,311.34 L401.949,311.34 C401.094,311.345 400.243,311.23 399.421,311 C398.933,310.868 398.645,310.365 398.777,309.877 C398.909,309.389 399.412,309.101 399.9,309.233 C400.568,309.42 401.256,309.514 401.949,309.514 L404.524,309.514 C405.028,309.514 405.436,309.922 405.436,310.427 C405.436,310.931 405.028,311.34 404.524,311.34 z M395.547,308.554 C395.288,308.554 395.041,308.443 394.868,308.25 C393.645,306.903 392.832,305.234 392.527,303.44 C392.496,302.967 392.829,302.548 393.297,302.469 C393.764,302.391 394.215,302.679 394.341,303.135 C394.583,304.584 395.238,305.933 396.225,307.021 C396.462,307.291 396.52,307.675 396.375,308.004 C396.229,308.333 395.906,308.547 395.547,308.554 z M393.311,299.32 C392.807,299.32 392.398,298.911 392.398,298.407 L392.398,294.896 C392.393,294.37 392.437,293.845 392.527,293.327 C392.611,292.83 393.083,292.494 393.58,292.578 C394.078,292.663 394.414,293.134 394.329,293.632 C394.263,294.049 394.231,294.472 394.236,294.896 L394.236,298.407 C394.205,298.895 393.799,299.274 393.311,299.273 z M395.523,290.074 C395.294,290.078 395.071,289.994 394.903,289.839 C394.534,289.5 394.504,288.929 394.833,288.552 C396.048,287.199 397.623,286.221 399.374,285.731 C399.613,285.652 399.874,285.675 400.096,285.795 C400.317,285.914 400.48,286.12 400.544,286.363 C400.62,286.604 400.593,286.865 400.473,287.086 C400.351,287.307 400.144,287.468 399.9,287.534 C398.488,287.927 397.218,288.715 396.237,289.804 C396.044,289.981 395.782,290.063 395.523,290.027 z M453.482,287.206 C452.974,287.206 452.558,286.801 452.545,286.293 C452.542,286.052 452.635,285.82 452.805,285.648 C452.975,285.476 453.205,285.38 453.447,285.38 L453.447,285.38 C453.951,285.38 454.359,285.789 454.359,286.293 C454.359,286.798 453.951,287.206 453.447,287.206 z M448.554,287.206 L443.65,287.206 C443.146,287.206 442.737,286.798 442.737,286.293 C442.737,285.789 443.146,285.38 443.65,285.38 L448.554,285.38 C449.059,285.38 449.467,285.789 449.467,286.293 C449.467,286.798 449.059,287.206 448.554,287.206 z M438.758,287.206 L433.866,287.206 C433.361,287.206 432.953,286.798 432.953,286.293 C432.953,285.789 433.361,285.38 433.866,285.38 L438.758,285.38 C439.262,285.38 439.671,285.789 439.671,286.293 C439.671,286.798 439.262,287.206 438.758,287.206 z M428.962,287.206 L424.069,287.206 C423.565,287.206 423.156,286.798 423.156,286.293 C423.156,285.789 423.565,285.38 424.069,285.38 L428.962,285.38 C429.466,285.38 429.875,285.789 429.875,286.293 C429.875,286.798 429.466,287.206 428.962,287.206 z M419.177,287.206 L414.285,287.206 C413.78,287.206 413.372,286.798 413.372,286.293 C413.372,285.789 413.78,285.38 414.285,285.38 L419.2,285.38 C419.705,285.38 420.113,285.789 420.113,286.293 C420.113,286.798 419.705,287.206 419.2,287.206 z M409.381,287.206 L404.488,287.206 C403.984,287.206 403.576,286.798 403.576,286.293 C403.576,285.789 403.984,285.38 404.488,285.38 L409.381,285.38 C409.885,285.38 410.294,285.789 410.294,286.293 C410.294,286.798 409.885,287.206 409.381,287.206 z" fill="#000000" opacity="0.5"/>
    <g opacity="0.5">
      <path d="M233.164,139.313 L366.883,139.313 L366.883,156.296 L233.164,156.296 z" fill="#FFFFFF"/>
    </g>
    <g opacity="0.5">
      <path d="M233.164,160.264 L316.287,160.264 L316.287,177.246 L233.164,177.246 z" fill="#FFFFFF"/>
    </g>
    <g opacity="0.5">
      <path d="M233.164,306.943 L293.429,306.943 L293.429,313.053 L233.164,313.053 z" fill="#FFFFFF"/>
    </g>
    <g opacity="0.5">
      <path d="M244.792,254.634 L355.255,254.634 L355.255,260.743 L244.792,260.743 z" fill="#FFFFFF"/>
    </g>
    <g opacity="0.5">
      <path d="M244.792,262.78 L327.447,262.78 L327.447,268.889 L244.792,268.889 z" fill="#FFFFFF"/>
    </g>
    <g opacity="0.5">
      <path d="M233.164,315.054 L316.287,315.054 L316.287,321.164 L233.164,321.164 z" fill="#FFFFFF"/>
    </g>
    <path d="M236.804,274.332 C235.188,274.332 233.878,273.022 233.878,271.406 L233.878,252.117 C233.878,250.501 235.188,249.191 236.804,249.191 C238.421,249.191 239.73,250.501 239.73,252.117 L239.73,271.406 C239.73,273.022 238.421,274.332 236.804,274.332 z" fill="#FFFFFF" opacity="0.5"/>
    <path d="M186.863,402.362 C177.254,402.369 169.462,394.583 169.459,384.974 C169.457,375.366 177.247,367.576 186.855,367.578 C196.464,367.58 204.251,375.373 204.244,384.982 C204.231,394.576 196.457,402.349 186.863,402.362 z M186.863,373.102 C180.308,373.095 174.988,378.406 174.983,384.962 C174.979,391.519 180.291,396.836 186.848,396.838 C193.403,396.84 198.719,391.526 198.719,384.97 C198.712,378.425 193.408,373.121 186.863,373.114 z" fill="#153B50"/>
    <path d="M144.155,245.036 C143.782,245.037 143.414,244.94 143.09,244.755 L123.193,233.473 C122.526,233.082 122.116,232.367 122.116,231.594 C122.116,230.822 122.526,230.107 123.193,229.716 L142.926,218.105 C143.594,217.719 144.416,217.716 145.088,218.096 C145.758,218.476 146.179,219.183 146.191,219.955 L146.379,242.848 C146.386,243.621 145.98,244.339 145.314,244.732 C144.963,244.939 144.562,245.045 144.155,245.036 z M128.565,231.553 L141.955,239.126 L141.814,223.747 z" fill="#153B50"/>
    <path d="M467.012,389.5 C466.638,389.501 466.271,389.404 465.947,389.219 L446.05,377.936 C445.382,377.545 444.973,376.83 444.973,376.057 C444.973,375.285 445.382,374.57 446.05,374.179 L465.783,362.569 C466.451,362.182 467.273,362.179 467.944,362.559 C468.615,362.94 469.035,363.646 469.048,364.418 L469.235,387.311 C469.242,388.085 468.836,388.802 468.17,389.195 C467.819,389.402 467.419,389.508 467.012,389.5 z M451.422,376.016 L464.846,383.589 L464.788,375.899 L464.788,375.899 L464.718,368.21 z" fill="#153B50"/>
    <path d="M597.606,71.067 C597.174,71.072 596.755,70.914 596.435,70.622 L584.731,59.714 C584.309,59.303 584.133,58.699 584.27,58.126 C584.407,57.552 584.835,57.092 585.398,56.917 L600.695,52.235 C601.262,52.055 601.883,52.193 602.319,52.598 C602.755,53.003 602.94,53.61 602.802,54.19 L599.221,69.791 C599.073,70.366 598.625,70.814 598.05,70.962 C597.909,71.023 597.759,71.058 597.606,71.067 z M589.132,59.258 L592.877,62.769 L592.877,62.769 L596.622,66.28 L598.963,56.285 z" fill="#153B50"/>
    <path d="M426.504,355.757 L198.275,355.757 C196.704,355.757 195.43,354.483 195.43,352.913 L195.43,107.127 C195.43,105.557 196.704,104.283 198.275,104.283 L453.669,104.283 C455.24,104.283 456.513,105.557 456.513,107.127 L456.513,325.748 C456.493,342.313 443.07,355.737 426.504,355.757 z M201.072,350.069 L426.504,350.069 C439.921,350.043 450.789,339.165 450.801,325.748 L450.801,109.971 L201.072,109.971 z" fill="#465775"/>
    <path d="M384.322,292.566 L426.457,292.566 C441.368,292.566 453.447,305.827 453.447,320.726 L453.447,100.772 C453.454,85.863 441.366,73.775 426.457,73.782 L384.322,73.782 L384.322,99.379 C384.322,99.836 384.322,100.304 384.322,100.772 C384.322,101.24 384.322,101.697 384.322,102.165 z" fill="#FFFFFF"/>
    <path d="M453.482,323.77 C451.79,323.764 450.421,322.394 450.415,320.703 C450.415,307.103 439.46,295.61 426.492,295.61 L384.357,295.61 C382.664,295.61 381.291,294.237 381.291,292.543 L381.291,102.235 C381.291,101.755 381.291,101.264 381.291,100.772 C381.291,100.28 381.291,99.789 381.291,99.297 L381.291,73.782 C381.291,72.089 382.664,70.716 384.357,70.716 L426.492,70.716 C443.084,70.736 456.528,84.18 456.548,100.772 L456.548,320.727 C456.535,322.411 455.166,323.77 453.482,323.77 z M387.389,289.488 L426.492,289.488 C436.019,289.626 444.908,294.306 450.415,302.082 L450.415,100.772 C450.415,87.553 439.711,76.834 426.492,76.814 L387.389,76.814 L387.389,99.356 C387.395,99.406 387.395,99.458 387.389,99.508 C387.389,99.918 387.389,100.327 387.389,100.749 C387.389,101.17 387.389,101.568 387.389,101.989 C387.395,102.04 387.395,102.091 387.389,102.141 z" fill="#465775"/>
    <path d="M412.143,92.134 L421.717,92.134 C427.121,92.134 431.501,96.515 431.501,101.919 L431.501,255.348 C431.501,260.751 427.121,265.132 421.717,265.132 L412.143,265.132 C406.739,265.132 402.358,260.751 402.358,255.348 L402.358,101.919 C402.358,96.515 406.739,92.134 412.143,92.134 z" fill="#FFFFFF"/>
    <path d="M421.775,266.525 L414.519,266.525 C413.803,266.459 413.254,265.858 413.254,265.138 C413.254,264.418 413.803,263.817 414.519,263.751 L421.693,263.751 C422.465,263.744 423.097,264.361 423.11,265.132 C423.119,265.494 422.983,265.845 422.733,266.107 C422.482,266.368 422.137,266.519 421.775,266.525 z M406.057,264.407 C405.728,264.405 405.408,264.289 405.156,264.079 C402.989,262.362 401.538,259.9 401.083,257.173 C401.022,256.45 401.525,255.802 402.241,255.682 C402.958,255.563 403.645,256.014 403.821,256.717 C404.162,258.764 405.252,260.611 406.876,261.902 C407.168,262.13 407.355,262.465 407.396,262.832 C407.438,263.2 407.33,263.569 407.098,263.856 C406.849,264.185 406.469,264.387 406.057,264.407 z M429.523,262.651 C428.998,262.649 428.518,262.351 428.284,261.881 C428.049,261.411 428.098,260.849 428.412,260.427 C429.527,258.969 430.127,257.183 430.12,255.348 L430.12,254.528 C430.186,253.812 430.788,253.263 431.507,253.263 C432.227,253.263 432.829,253.812 432.894,254.528 L432.894,255.348 C432.904,257.788 432.105,260.163 430.624,262.101 C430.365,262.447 429.957,262.652 429.523,262.651 z M402.358,249.402 C401.99,249.402 401.637,249.254 401.378,248.993 C401.118,248.731 400.974,248.378 400.977,248.009 L400.977,240.835 C401.043,240.118 401.644,239.569 402.364,239.569 C403.084,239.569 403.686,240.118 403.751,240.835 L403.751,248.009 C403.751,248.778 403.127,249.402 402.358,249.402 z M431.513,246.944 C431.145,246.948 430.791,246.804 430.529,246.544 C430.268,246.284 430.12,245.932 430.12,245.563 L430.12,238.388 C430.072,237.863 430.325,237.355 430.775,237.076 C431.223,236.799 431.792,236.799 432.24,237.076 C432.689,237.355 432.942,237.863 432.894,238.388 L432.894,245.563 C432.894,246.326 432.276,246.944 431.513,246.944 z M402.358,233.262 C401.99,233.262 401.637,233.115 401.378,232.854 C401.118,232.591 400.974,232.238 400.977,231.869 L400.977,224.695 C400.929,224.169 401.182,223.661 401.632,223.383 C402.08,223.105 402.649,223.105 403.097,223.383 C403.546,223.661 403.799,224.169 403.751,224.695 L403.751,231.869 C403.751,232.638 403.127,233.262 402.358,233.262 z M431.513,230.804 C430.744,230.804 430.12,230.18 430.12,229.411 L430.12,222.237 C430.186,221.521 430.788,220.972 431.507,220.972 C432.227,220.972 432.829,221.521 432.894,222.237 L432.894,229.411 C432.898,229.78 432.754,230.134 432.494,230.396 C432.234,230.657 431.882,230.804 431.513,230.804 z M402.358,217.11 C401.595,217.11 400.977,216.492 400.977,215.729 L400.977,208.555 C400.929,208.029 401.182,207.521 401.632,207.243 C402.08,206.965 402.649,206.965 403.097,207.243 C403.546,207.521 403.799,208.029 403.751,208.555 L403.751,215.729 C403.751,216.098 403.604,216.45 403.343,216.71 C403.08,216.97 402.727,217.114 402.358,217.11 z M431.513,214.664 C430.744,214.664 430.12,214.04 430.12,213.271 L430.12,206.097 C430.072,205.571 430.325,205.063 430.775,204.785 C431.223,204.507 431.792,204.507 432.24,204.785 C432.689,205.063 432.942,205.571 432.894,206.097 L432.894,213.271 C432.898,213.64 432.754,213.994 432.494,214.256 C432.234,214.517 431.882,214.664 431.513,214.664 z M402.358,200.971 C401.99,200.971 401.637,200.823 401.378,200.562 C401.118,200.3 400.974,199.946 400.977,199.578 L400.977,192.403 C401.043,191.687 401.644,191.138 402.364,191.138 C403.084,191.138 403.686,191.687 403.751,192.403 L403.751,199.578 C403.751,200.347 403.127,200.971 402.358,200.971 z M431.513,198.513 C431.145,198.516 430.791,198.372 430.529,198.112 C430.268,197.853 430.12,197.5 430.12,197.132 L430.12,189.957 C430.072,189.431 430.325,188.924 430.775,188.645 C431.223,188.368 431.792,188.368 432.24,188.645 C432.689,188.924 432.942,189.431 432.894,189.957 L432.894,197.132 C432.9,197.501 432.757,197.86 432.499,198.123 C432.239,198.387 431.883,198.536 431.513,198.536 z M402.358,184.831 C401.594,184.825 400.977,184.202 400.977,183.438 L400.977,176.298 C400.929,175.773 401.182,175.265 401.632,174.986 C402.08,174.709 402.649,174.709 403.097,174.986 C403.546,175.265 403.799,175.773 403.751,176.298 L403.751,183.473 C403.732,184.228 403.114,184.831 402.358,184.831 z M431.513,182.373 C430.744,182.373 430.12,181.749 430.12,180.98 L430.12,173.805 C430.186,173.089 430.788,172.54 431.507,172.54 C432.227,172.54 432.829,173.089 432.894,173.805 L432.894,180.98 C432.898,181.349 432.754,181.702 432.494,181.964 C432.234,182.225 431.882,182.373 431.513,182.373 z M402.358,168.679 C401.595,168.679 400.977,168.061 400.977,167.298 L400.977,160.123 C400.929,159.598 401.182,159.09 401.632,158.811 C402.08,158.534 402.649,158.534 403.097,158.811 C403.546,159.09 403.799,159.598 403.751,160.123 L403.751,167.298 C403.751,167.667 403.604,168.019 403.343,168.279 C403.08,168.539 402.727,168.683 402.358,168.679 z M431.513,166.233 C430.744,166.233 430.12,165.609 430.12,164.84 L430.12,157.665 C430.072,157.14 430.325,156.632 430.775,156.353 C431.223,156.076 431.792,156.076 432.24,156.353 C432.689,156.632 432.942,157.14 432.894,157.665 L432.894,164.84 C432.898,165.209 432.754,165.562 432.494,165.824 C432.234,166.085 431.882,166.233 431.513,166.233 z M402.358,152.539 C401.99,152.539 401.637,152.392 401.378,152.131 C401.118,151.868 400.974,151.515 400.977,151.146 L400.977,143.972 C401.043,143.255 401.644,142.707 402.364,142.707 C403.084,142.707 403.686,143.255 403.751,143.972 L403.751,151.146 C403.751,151.915 403.127,152.539 402.358,152.539 z M431.513,150.081 C431.145,150.085 430.791,149.941 430.529,149.681 C430.268,149.421 430.12,149.069 430.12,148.7 L430.12,141.526 C430.072,141 430.325,140.492 430.775,140.214 C431.223,139.936 431.792,139.936 432.24,140.214 C432.689,140.492 432.942,141 432.894,141.526 L432.894,148.7 C432.894,149.463 432.276,150.081 431.513,150.081 z M402.358,136.399 C401.594,136.393 400.977,135.771 400.977,135.006 L400.977,127.832 C400.929,127.306 401.182,126.798 401.632,126.52 C402.08,126.242 402.649,126.242 403.097,126.52 C403.546,126.798 403.799,127.306 403.751,127.832 L403.751,135.006 C403.751,135.775 403.127,136.399 402.358,136.399 z M431.513,133.941 C430.744,133.941 430.12,133.318 430.12,132.549 L430.12,125.374 C430.186,124.658 430.788,124.109 431.507,124.109 C432.227,124.109 432.829,124.658 432.894,125.374 L432.894,132.549 C432.898,132.917 432.754,133.271 432.494,133.533 C432.234,133.794 431.882,133.941 431.513,133.941 z M402.358,120.248 C401.595,120.248 400.977,119.63 400.977,118.867 L400.977,111.692 C400.929,111.166 401.182,110.658 401.632,110.38 C402.08,110.102 402.649,110.102 403.097,110.38 C403.546,110.658 403.799,111.166 403.751,111.692 L403.751,118.867 C403.751,119.235 403.604,119.587 403.343,119.847 C403.08,120.107 402.727,120.251 402.358,120.248 z M431.513,117.778 C430.744,117.778 430.12,117.154 430.12,116.385 L430.12,109.234 C430.072,108.709 430.325,108.201 430.775,107.922 C431.223,107.645 431.792,107.645 432.24,107.922 C432.689,108.201 432.942,108.709 432.894,109.234 L432.894,116.409 C432.881,117.165 432.269,117.772 431.513,117.778 z M402.358,104.084 C401.99,104.084 401.637,103.937 401.378,103.676 C401.118,103.414 400.974,103.06 400.977,102.691 L400.977,101.896 C400.987,99.44 401.809,97.057 403.318,95.119 C403.784,94.512 404.654,94.396 405.261,94.861 C405.868,95.327 405.984,96.197 405.518,96.804 C404.4,98.265 403.794,100.056 403.798,101.896 L403.798,102.691 C403.805,103.073 403.654,103.441 403.382,103.709 C403.11,103.977 402.74,104.121 402.358,104.108 z M431.373,101.638 C430.692,101.636 430.112,101.141 430.003,100.468 C429.65,98.423 428.554,96.581 426.925,95.295 C426.401,94.799 426.341,93.985 426.789,93.418 C427.237,92.852 428.042,92.722 428.646,93.118 C430.813,94.828 432.273,97.278 432.742,100 C432.803,100.368 432.713,100.745 432.493,101.046 C432.273,101.348 431.94,101.548 431.572,101.603 z M419.294,93.445 L412.178,93.445 C411.807,93.449 411.449,93.302 411.186,93.041 C410.922,92.78 410.774,92.424 410.774,92.052 C410.77,91.687 410.913,91.336 411.17,91.076 C411.428,90.818 411.778,90.671 412.143,90.671 L419.318,90.671 C419.843,90.623 420.351,90.876 420.63,91.326 C420.907,91.774 420.907,92.343 420.63,92.791 C420.351,93.24 419.843,93.493 419.318,93.445 z" fill="#999999"/>
    <path d="M541.836,90.25 L556.208,90.25 C561.256,90.25 565.349,94.343 565.349,99.391 L565.349,244.791 C565.349,249.839 561.256,253.931 556.208,253.931 L541.836,253.931 C536.788,253.931 532.695,249.839 532.695,244.791 L532.695,99.391 C532.695,94.343 536.788,90.25 541.836,90.25 z" fill="#F7931E"/>
    <path d="M556.22,256.857 L541.836,256.857 C535.177,256.845 529.782,251.45 529.769,244.791 L529.769,99.391 C529.789,92.738 535.183,87.353 541.836,87.347 L556.22,87.347 C562.882,87.354 568.281,92.752 568.287,99.414 L568.287,244.791 C568.274,251.45 562.88,256.845 556.22,256.857 z M541.836,93.2 C538.406,93.207 535.628,95.985 535.621,99.414 L535.621,244.791 C535.628,248.22 538.406,251 541.836,251.005 L556.22,251.005 C559.653,251.005 562.435,248.223 562.435,244.791 L562.435,99.391 C562.435,95.958 559.653,93.176 556.22,93.176 z" fill="#465775"/>
    <path d="M553.54,106.612 C553.54,110.717 550.212,114.044 546.108,114.044 C542.003,114.044 538.676,110.717 538.676,106.612 C538.676,102.508 542.003,99.18 546.108,99.18 C550.212,99.18 553.54,102.508 553.54,106.612 z" fill="#FCE4C8" opacity="0.75"/>
    <path d="M553.54,131.109 C553.54,135.214 550.212,138.541 546.108,138.541 C542.003,138.541 538.676,135.214 538.676,131.109 C538.676,127.004 542.003,123.677 546.108,123.677 C550.212,123.677 553.54,127.004 553.54,131.109 z" fill="#FCE4C8" opacity="0.75"/>
    <path d="M553.54,155.606 C553.54,159.71 550.212,163.038 546.108,163.038 C542.003,163.038 538.676,159.71 538.676,155.606 C538.676,151.501 542.003,148.173 546.108,148.173 C550.212,148.173 553.54,151.501 553.54,155.606 z" fill="#FCE4C8" opacity="0.75"/>
    <path d="M553.54,180.102 C553.54,184.207 550.212,187.534 546.108,187.534 C542.003,187.534 538.676,184.207 538.676,180.102 C538.676,175.998 542.003,172.67 546.108,172.67 C550.212,172.67 553.54,175.998 553.54,180.102 z" fill="#FCE4C8" opacity="0.75"/>
    <path d="M546.435,200.362 L555.459,200.362 L555.459,209.386 L546.435,209.386 z" fill="#153B50"/>
    <path d="M546.435,196.242 L549.443,196.242 L549.443,199.25 L546.435,199.25 z" fill="#153B50"/>
    <path d="M542.901,210.661 L544.656,210.661 L544.656,212.417 L542.901,212.417 z" fill="#153B50"/>
    <path d="M556.84,200.362 L560.398,200.362 L560.398,202.422 L556.84,202.422 z" fill="#153B50"/>
    <path d="M555.471,210.345 L555.471,213.904 L553.411,213.904 L553.411,210.345 z" fill="#153B50"/>
    <path d="M542.234,197.19 L545.792,197.19 L545.792,199.25 L542.234,199.25 z" fill="#153B50"/>
    <path d="M556.349,206.366 L558.35,206.366 L558.35,207.525 L556.349,207.525 z" fill="#153B50"/>
    <path d="M556.349,207.852 L558.35,207.852 L558.35,209.011 L556.349,209.011 z" fill="#153B50"/>
    <path d="M543.65,203.545 L545.651,203.545 L545.651,204.704 L543.65,204.704 z" fill="#153B50"/>
    <path d="M543.65,205.032 L545.651,205.032 L545.651,206.191 L543.65,206.191 z" fill="#153B50"/>
    <path d="M560.448,231.425 C560.448,237.732 555.335,242.845 549.028,242.845 C542.721,242.845 537.608,237.732 537.608,231.425 C537.608,225.118 542.721,220.005 549.028,220.005 C555.335,220.005 560.448,225.118 560.448,231.425 z" fill="#F4D4B5"/>
    <path d="M557.285,104.775 L561.019,104.775 L561.019,108.508 L557.285,108.508 z" fill="#5CB3FF"/>
    <path d="M557.285,129.248 L561.019,129.248 L561.019,132.982 L557.285,132.982 z" fill="#5CB3FF"/>
    <path d="M557.285,153.745 L561.019,153.745 L561.019,157.478 L557.285,157.478 z" fill="#5CB3FF"/>
    <path d="M557.285,178.241 L561.019,178.241 L561.019,181.975 L557.285,181.975 z" fill="#5CB3FF"/>
    <path d="M546.108,189.173 C541.091,189.173 537.025,185.107 537.025,180.09 C537.025,175.074 541.091,171.008 546.108,171.008 C551.124,171.008 555.19,175.074 555.19,180.09 C555.184,185.103 551.121,189.166 546.108,189.173 z M546.108,174.32 C542.919,174.313 540.331,176.894 540.326,180.082 C540.321,183.27 542.904,185.858 546.092,185.861 C549.281,185.863 551.866,183.279 551.866,180.09 C551.859,176.913 549.285,174.339 546.108,174.332 z" fill="#465775"/>
    <path d="M546.108,164.688 C541.091,164.688 537.025,160.622 537.025,155.606 C537.025,150.589 541.091,146.523 546.108,146.523 C551.124,146.523 555.19,150.589 555.19,155.606 C555.184,160.618 551.121,164.681 546.108,164.688 z M546.108,149.835 C542.919,149.828 540.331,152.409 540.326,155.597 C540.321,158.786 542.904,161.373 546.092,161.376 C549.281,161.378 551.866,158.794 551.866,155.606 C551.866,152.423 549.29,149.842 546.108,149.835 z" fill="#465775"/>
    <path d="M546.108,140.191 C541.091,140.191 537.025,136.125 537.025,131.109 C537.025,126.093 541.091,122.027 546.108,122.027 C551.124,122.027 555.19,126.093 555.19,131.109 C555.184,136.122 551.121,140.184 546.108,140.191 z M546.108,125.339 C542.919,125.332 540.331,127.913 540.326,131.101 C540.321,134.289 542.904,136.877 546.092,136.879 C549.281,136.881 551.866,134.297 551.866,131.109 C551.866,127.927 549.29,125.346 546.108,125.339 z" fill="#465775"/>
    <path d="M546.108,115.706 C541.083,115.713 537.007,111.644 537.002,106.621 C536.997,101.596 541.068,97.521 546.092,97.518 C551.116,97.516 555.19,101.588 555.19,106.612 C555.184,111.628 551.123,115.694 546.108,115.706 z M546.108,100.842 C542.919,100.835 540.331,103.416 540.326,106.604 C540.321,109.792 542.904,112.38 546.092,112.382 C549.281,112.385 551.866,109.801 551.866,106.612 C551.866,103.43 549.29,100.849 546.108,100.842 z" fill="#465775"/>
    <path d="M523.811,91.912 L463.922,91.912 C463.004,91.912 462.26,91.168 462.26,90.25 C462.26,89.332 463.004,88.588 463.922,88.588 L523.811,88.588 C524.729,88.588 525.473,89.332 525.473,90.25 C525.473,91.168 524.729,91.912 523.811,91.912 z" fill="#465775"/>
    <path d="M523.811,258.648 L463.922,258.648 C463.004,258.648 462.26,257.904 462.26,256.986 C462.26,256.069 463.004,255.324 463.922,255.324 L523.811,255.324 C524.729,255.324 525.473,256.069 525.473,256.986 C525.473,257.904 524.729,258.648 523.811,258.648 z" fill="#465775"/>
    <path d="M486.897,182.443 L476.726,172.272 L486.897,162.101" fill="#FFFFFF"/>
    <path d="M486.897,185.509 C486.083,185.509 485.305,185.185 484.732,184.608 L474.561,174.437 C473.985,173.864 473.661,173.084 473.661,172.272 C473.661,171.46 473.985,170.68 474.561,170.107 L484.743,159.913 C485.502,159.069 486.664,158.713 487.765,158.987 C488.865,159.261 489.726,160.121 490,161.221 C490.273,162.323 489.918,163.485 489.074,164.243 L481.068,172.249 L489.074,180.254 C489.948,181.131 490.209,182.448 489.736,183.592 C489.262,184.737 488.147,185.484 486.909,185.486 z" fill="#465775"/>
    <path d="M515.619,175.339 L476.726,175.339 C475.032,175.339 473.659,173.966 473.659,172.272 C473.659,170.579 475.032,169.206 476.726,169.206 L515.619,169.206 C517.312,169.206 518.685,170.579 518.685,172.272 C518.685,173.966 517.312,175.339 515.619,175.339 z" fill="#465775"/>
    <path d="M651.83,317.847 C651.83,350.684 625.211,377.304 592.374,377.304 C559.537,377.304 532.917,350.684 532.917,317.847 C532.917,285.01 559.537,258.391 592.374,258.391 C625.211,258.391 651.83,285.01 651.83,317.847 z" fill="#FFFFFF"/>
    <path d="M592.421,380.37 C557.89,380.37 529.898,352.378 529.898,317.847 C529.898,283.317 557.89,255.324 592.421,255.324 C626.951,255.324 654.944,283.317 654.944,317.847 C654.905,352.361 626.935,380.332 592.421,380.37 z M592.421,261.457 C561.269,261.457 536.016,286.711 536.019,317.863 C536.021,349.014 561.277,374.266 592.429,374.261 C623.58,374.256 648.828,348.999 648.823,317.847 C648.79,286.712 623.556,261.483 592.421,261.457 z" fill="#465775"/>
    <path d="M552.369,362.943 C550.855,362.937 549.631,361.707 549.631,360.193 L549.631,273.863 C549.631,272.351 550.857,271.125 552.369,271.125 C553.881,271.125 555.108,272.351 555.108,273.863 L555.108,360.193 C555.108,361.707 553.884,362.937 552.369,362.943 z" fill="#153B50"/>
    <path d="M632.32,362.943 C630.801,362.943 629.569,361.712 629.569,360.193 L629.569,273.863 C629.664,272.417 630.865,271.292 632.314,271.292 C633.763,271.292 634.964,272.417 635.059,273.863 L635.059,360.193 C635.059,361.707 633.834,362.936 632.32,362.943 z" fill="#153B50"/>
    <path d="M637.224,278.826 C625.623,265.482 608.681,257.999 591.004,258.407 C573.328,258.817 556.75,267.077 545.78,280.944 L545.78,354.762 C556.75,368.631 573.329,376.892 591.007,377.299 C608.686,377.707 625.626,370.217 637.224,356.869 z" fill="#F7931E"/>
    <path d="M592.421,379.949 C573.451,379.985 555.513,371.309 543.767,356.412 C543.404,355.948 543.206,355.375 543.205,354.785 L543.205,280.944 C543.205,280.354 543.403,279.782 543.767,279.318 C555.219,264.838 572.526,256.213 590.982,255.784 C609.438,255.357 627.126,263.172 639.237,277.105 C639.649,277.584 639.877,278.194 639.881,278.826 L639.881,356.869 C639.879,357.501 639.651,358.112 639.237,358.589 C627.46,372.152 610.383,379.943 592.421,379.949 z M548.448,353.861 C558.94,366.66 574.495,374.246 591.04,374.633 C607.586,375.019 623.476,368.169 634.555,355.874 L634.555,279.797 C623.469,267.478 607.554,260.614 590.985,261.008 C574.415,261.401 558.844,269.012 548.355,281.846 z" fill="#465775"/>
    <path d="M582.554,307.934 L605.974,307.934 L605.974,331.354 L582.554,331.354 z" fill="#153B50"/>
    <path d="M582.554,297.26 L590.349,297.26 L590.349,305.055 L582.554,305.055 z" fill="#153B50"/>
    <path d="M573.378,334.654 L577.943,334.654 L577.943,339.219 L573.378,339.219 z" fill="#153B50"/>
    <path d="M608.373,314.956 L617.596,314.956 L617.596,320.293 L608.373,320.293 z" fill="#153B50"/>
    <path d="M598.94,332.676 L598.94,341.899 L593.603,341.899 L593.603,332.676 z" fill="#153B50"/>
    <path d="M571.634,299.718 L580.857,299.718 L580.857,305.055 L571.634,305.055 z" fill="#153B50"/>
    <path d="M608.268,321.16 L613.476,321.16 L613.476,324.167 L608.268,324.167 z" fill="#153B50"/>
    <path d="M608.268,327.363 L613.476,327.363 L613.476,330.371 L608.268,330.371 z" fill="#153B50"/>
    <path d="M575.333,315.038 L580.541,315.038 L580.541,318.046 L575.333,318.046 z" fill="#153B50"/>
    <path d="M575.333,320.071 L580.541,320.071 L580.541,323.079 L575.333,323.079 z" fill="#153B50"/>
    <path d="M621.798,312.264 L605.962,312.264 C605.045,312.264 604.3,311.52 604.3,310.603 C604.3,309.685 605.045,308.941 605.962,308.941 L620.136,308.941 L620.136,292.075 C620.136,291.157 620.88,290.413 621.798,290.413 C622.715,290.413 623.46,291.157 623.46,292.075 L623.46,310.603 C623.454,311.518 622.713,312.259 621.798,312.264 z" fill="#153B50"/>
    <path d="M625.801,287.464 C625.801,289.674 624.009,291.466 621.798,291.466 C619.587,291.466 617.795,289.674 617.795,287.464 C617.795,285.253 619.587,283.461 621.798,283.461 C624.009,283.461 625.801,285.253 625.801,287.464 z" fill="#F4D4B5"/>
    <path d="M621.798,293.128 C618.669,293.128 616.133,290.592 616.133,287.464 C616.133,284.335 618.669,281.799 621.798,281.799 C624.926,281.799 627.463,284.335 627.463,287.464 C627.463,290.592 624.926,293.128 621.798,293.128 z M621.798,285.123 C620.505,285.123 619.457,286.17 619.457,287.464 C619.457,288.757 620.505,289.804 621.798,289.804 C623.091,289.804 624.139,288.757 624.139,287.464 C624.126,286.18 623.082,285.146 621.798,285.146 z" fill="#153B50"/>
    <path d="M601.796,292.075 C601.796,294.286 600.004,296.078 597.793,296.078 C595.582,296.078 593.79,294.286 593.79,292.075 C593.79,289.864 595.582,288.072 597.793,288.072 C600.004,288.072 601.796,289.864 601.796,292.075 z" fill="#F4D4B5"/>
    <path d="M597.793,297.74 C594.664,297.74 592.128,295.203 592.128,292.075 C592.128,288.946 594.664,286.41 597.793,286.41 C600.921,286.41 603.458,288.946 603.458,292.075 C603.458,295.203 600.921,297.74 597.793,297.74 z M597.793,289.734 C596.499,289.734 595.452,290.782 595.452,292.075 C595.452,293.368 596.499,294.416 597.793,294.416 C599.086,294.416 600.134,293.368 600.134,292.075 C600.134,290.782 599.086,289.734 597.793,289.734 z" fill="#153B50"/>
    <path d="M568.86,292.567 C568.86,294.777 567.068,296.569 564.858,296.569 C562.647,296.569 560.855,294.777 560.855,292.567 C560.855,290.356 562.647,288.564 564.858,288.564 C567.068,288.564 568.86,290.356 568.86,292.567 z" fill="#F4D4B5"/>
    <path d="M564.858,298.231 C561.729,298.231 559.193,295.695 559.193,292.567 C559.193,289.438 561.729,286.902 564.858,286.902 C567.986,286.902 570.522,289.438 570.522,292.567 C570.515,295.693 567.984,298.224 564.858,298.231 z M564.858,290.214 C563.564,290.214 562.517,291.262 562.517,292.555 C562.517,293.848 563.564,294.896 564.858,294.896 C566.151,294.896 567.198,293.848 567.198,292.555 C567.198,291.262 566.151,290.214 564.858,290.214 z" fill="#153B50"/>
    <path d="M570.148,321.499 C570.148,323.71 568.356,325.502 566.145,325.502 C563.934,325.502 562.142,323.71 562.142,321.499 C562.142,319.288 563.934,317.496 566.145,317.496 C568.356,317.496 570.148,319.288 570.148,321.499 z" fill="#F4D4B5"/>
    <path d="M566.145,327.164 C563.017,327.164 560.48,324.627 560.48,321.499 C560.48,318.37 563.017,315.834 566.145,315.834 C569.273,315.834 571.81,318.37 571.81,321.499 C571.81,324.627 569.273,327.164 566.145,327.164 z M566.145,319.158 C564.852,319.158 563.804,320.206 563.804,321.499 C563.804,322.792 564.852,323.84 566.145,323.84 C567.438,323.84 568.486,322.792 568.486,321.499 C568.486,320.206 567.438,319.158 566.145,319.158 z" fill="#153B50"/>
    <path d="M569.539,349.671 C569.539,351.882 567.747,353.673 565.536,353.673 C563.326,353.673 561.534,351.882 561.534,349.671 C561.534,347.46 563.326,345.668 565.536,345.668 C567.747,345.668 569.539,347.46 569.539,349.671 z" fill="#F4D4B5"/>
    <path d="M565.501,355.371 C562.373,355.371 559.837,352.834 559.837,349.706 C559.837,346.577 562.373,344.041 565.501,344.041 C568.63,344.041 571.166,346.577 571.166,349.706 C571.166,352.834 568.63,355.371 565.501,355.371 z M565.501,347.365 C564.208,347.365 563.16,348.412 563.16,349.706 C563.16,350.999 564.208,352.047 565.501,352.047 C566.795,352.047 567.842,350.999 567.842,349.706 C567.852,349.078 567.609,348.475 567.169,348.027 C566.729,347.581 566.129,347.33 565.501,347.33 z" fill="#153B50"/>
    <path d="M594.715,364.207 C594.715,366.418 592.923,368.21 590.712,368.21 C588.501,368.21 586.709,366.418 586.709,364.207 C586.709,361.996 588.501,360.204 590.712,360.204 C592.923,360.204 594.715,361.996 594.715,364.207 z" fill="#F4D4B5"/>
    <path d="M590.712,369.872 C587.583,369.872 585.047,367.336 585.047,364.207 C585.047,361.079 587.583,358.542 590.712,358.542 C593.84,358.542 596.377,361.079 596.377,364.207 C596.377,367.336 593.84,369.872 590.712,369.872 z M590.712,361.866 C589.419,361.866 588.371,362.914 588.371,364.207 C588.371,365.5 589.419,366.548 590.712,366.548 C592.005,366.548 593.053,365.5 593.053,364.207 C593.053,362.914 592.005,361.866 590.712,361.866 z" fill="#153B50"/>
    <path d="M606.138,349.671 C606.138,351.882 604.346,353.673 602.135,353.673 C599.924,353.673 598.132,351.882 598.132,349.671 C598.132,347.46 599.924,345.668 602.135,345.668 C604.346,345.668 606.138,347.46 606.138,349.671 z" fill="#F4D4B5"/>
    <path d="M602.135,355.371 C599.005,355.378 596.463,352.844 596.458,349.714 C596.454,346.583 598.989,344.043 602.12,344.041 C605.249,344.039 607.788,346.576 607.788,349.706 C607.788,352.83 605.259,355.365 602.135,355.371 z M602.135,347.365 C600.842,347.365 599.794,348.412 599.794,349.706 C599.794,350.999 600.842,352.047 602.135,352.047 C603.428,352.047 604.476,350.999 604.476,349.706 C604.485,349.078 604.243,348.474 603.803,348.027 C603.363,347.581 602.762,347.33 602.135,347.33 z" fill="#153B50"/>
    <path d="M622.769,342.473 C622.769,344.684 620.977,346.475 618.766,346.475 C616.556,346.475 614.764,344.684 614.764,342.473 C614.764,340.262 616.556,338.47 618.766,338.47 C620.977,338.47 622.769,340.262 622.769,342.473 z" fill="#F4D4B5"/>
    <path d="M618.766,348.126 C616.474,348.13 614.403,346.752 613.523,344.634 C612.644,342.516 613.127,340.077 614.75,338.456 C616.371,336.834 618.81,336.35 620.928,337.229 C623.045,338.109 624.424,340.18 624.42,342.473 C624.413,345.592 621.886,348.12 618.766,348.126 z M618.766,340.12 C617.473,340.12 616.426,341.168 616.426,342.461 C616.426,343.754 617.473,344.802 618.766,344.802 C620.06,344.802 621.107,343.754 621.107,342.461 C621.089,341.182 620.046,340.155 618.766,340.155 z" fill="#153B50"/>
    <path d="M618.766,340.155 C618.325,340.159 617.9,339.984 617.588,339.672 C617.275,339.359 617.101,338.934 617.104,338.493 L617.104,330.558 L605.962,330.558 C605.101,330.485 604.44,329.766 604.44,328.902 C604.44,328.038 605.101,327.318 605.962,327.246 L618.766,327.246 C619.207,327.246 619.628,327.421 619.938,327.734 C620.247,328.045 620.42,328.468 620.417,328.908 L620.417,338.493 C620.42,338.933 620.247,339.356 619.938,339.667 C619.628,339.98 619.207,340.155 618.766,340.155 z" fill="#153B50"/>
    <path d="M597.793,309.795 C596.88,309.789 596.143,309.046 596.143,308.133 L596.143,296.078 C596.09,295.453 596.394,294.851 596.928,294.523 C597.462,294.195 598.136,294.195 598.669,294.523 C599.204,294.851 599.508,295.453 599.455,296.078 L599.455,308.133 C599.455,309.051 598.71,309.795 597.793,309.795 z" fill="#153B50"/>
    <path d="M582.554,323.161 L570.183,323.161 C569.265,323.161 568.521,322.417 568.521,321.499 C568.521,320.581 569.265,319.837 570.183,319.837 L582.589,319.837 C583.507,319.837 584.251,320.581 584.251,321.499 C584.251,322.417 583.507,323.161 582.589,323.161 z" fill="#153B50"/>
    <path d="M582.554,313.435 L564.858,313.435 C563.942,313.429 563.201,312.688 563.196,311.773 L563.196,296.558 C563.196,295.64 563.94,294.896 564.858,294.896 C565.775,294.896 566.52,295.64 566.52,296.558 L566.52,310.099 L582.554,310.099 C583.472,310.099 584.216,310.844 584.216,311.761 C584.216,312.679 583.472,313.423 582.554,313.423 z" fill="#153B50"/>
    <path d="M590.712,361.866 C590.272,361.866 589.85,361.691 589.54,361.379 C589.231,361.067 589.058,360.644 589.062,360.204 L589.062,331.354 C589.009,330.729 589.313,330.127 589.847,329.799 C590.381,329.471 591.055,329.471 591.589,329.799 C592.122,330.127 592.427,330.729 592.374,331.354 L592.374,360.204 C592.377,360.646 592.203,361.07 591.891,361.383 C591.578,361.695 591.153,361.87 590.712,361.866 z" fill="#153B50"/>
    <path d="M602.135,347.33 C601.217,347.33 600.473,346.585 600.473,345.668 L600.473,331.354 C600.42,330.729 600.725,330.127 601.258,329.799 C601.792,329.471 602.466,329.471 603,329.799 C603.534,330.127 603.838,330.729 603.785,331.354 L603.785,345.668 C603.785,346.581 603.048,347.324 602.135,347.33 z" fill="#153B50"/>
    <path d="M586.065,351.333 L569.539,351.333 C568.914,351.385 568.313,351.081 567.985,350.547 C567.656,350.014 567.656,349.339 567.985,348.806 C568.313,348.272 568.914,347.968 569.539,348.02 L584.403,348.02 L584.403,331.354 C584.351,330.729 584.655,330.127 585.189,329.799 C585.722,329.471 586.397,329.471 586.93,329.799 C587.464,330.127 587.768,330.729 587.716,331.354 L587.716,349.671 C587.719,350.111 587.546,350.533 587.237,350.845 C586.927,351.157 586.505,351.333 586.065,351.333 z" fill="#153B50"/>
    <path d="M639.927,283.554 L568.86,188.576" fill="#F4D4B5"/>
    <path d="M639.927,285.216 C639.405,285.219 638.913,284.971 638.605,284.549 L567.538,189.571 C567.143,189.099 567.043,188.448 567.274,187.878 C567.506,187.31 568.033,186.914 568.645,186.852 C569.257,186.79 569.853,187.07 570.195,187.581 L641.262,282.56 C641.53,282.914 641.644,283.361 641.581,283.801 C641.517,284.24 641.28,284.637 640.922,284.9 C640.634,285.111 640.284,285.222 639.927,285.216 z" fill="#465775"/>
    <path d="M532.695,312.698 L533.257,258.344" fill="#F4D4B5"/>
    <path d="M532.73,314.406 L532.73,314.406 C532.289,314.406 531.867,314.228 531.558,313.914 C531.251,313.599 531.082,313.173 531.091,312.733 L531.641,258.391 C531.648,257.479 532.392,256.745 533.303,256.752 L533.303,256.752 C533.745,256.752 534.166,256.93 534.475,257.245 C534.783,257.56 534.951,257.986 534.942,258.426 L534.392,312.768 C534.385,313.68 533.642,314.413 532.73,314.406 z" fill="#465775"/>
  </g>
</svg>
