<?xml version="1.0" encoding="UTF-8"?>
<!DOCTYPE svg PUBLIC "-//W3C//DTD SVG 1.1//EN" "http://www.w3.org/Graphics/SVG/1.1/DTD/svg11.dtd">
<svg version="1.1" xmlns="http://www.w3.org/2000/svg" xmlns:xlink="http://www.w3.org/1999/xlink" x="0" y="0" width="777.06" height="437.1" viewBox="0, 0, 777.06, 437.1">
  <g id="Layer_1">
    <path d="M276.338,23.933 L552.442,23.933 C585.736,23.933 612.727,50.924 612.727,84.218 L612.727,360.322 C612.727,393.616 585.736,420.606 552.442,420.606 L276.338,420.606 C243.044,420.606 216.054,393.616 216.054,360.322 L216.054,84.218 C216.054,50.924 243.044,23.933 276.338,23.933 z" fill="#C7B299" opacity="0.41"/>
    <path d="M190.674,95.431 L383.85,95.431 L383.85,336.569 L186.104,336.569" fill="#FFFFFF"/>
    <path d="M383.85,339.982 L186.116,339.982 C184.847,340.057 183.64,339.422 182.983,338.333 C182.325,337.245 182.325,335.882 182.983,334.793 C183.64,333.705 184.847,333.069 186.116,333.145 L380.426,333.145 L380.426,98.843 L190.71,98.843 C189.441,98.919 188.234,98.284 187.577,97.195 C186.918,96.106 186.918,94.744 187.577,93.655 C188.234,92.566 189.441,91.931 190.71,92.007 L383.85,92.007 C385.727,92.026 387.238,93.554 387.238,95.431 L387.238,336.569 C387.238,338.444 385.725,339.968 383.85,339.982 z" fill="#465775"/>
    <path d="M203.298,109.899 C211.336,122.182 214.055,137.199 210.833,151.52 C204.202,183.567 178.412,211.611 177.448,239.969 C176.64,263.275 195.328,308.983 202.007,324.512 L370.587,324.512 L370.587,109.899 z" fill="#E84254"/>
    <path d="M494.062,69.183 C486.305,69.183 480.016,62.894 480.016,55.137 C480.016,47.379 486.305,41.09 494.062,41.09 C501.82,41.09 508.109,47.379 508.109,55.137 C508.095,62.889 501.815,69.17 494.062,69.183 z M494.062,45.552 C488.776,45.552 484.488,49.831 484.477,55.116 C484.466,60.403 488.737,64.7 494.022,64.722 C499.308,64.744 503.614,60.483 503.647,55.197 C503.647,49.893 499.366,45.584 494.062,45.552 z" fill="#153B50"/>
    <path d="M263.184,41.078 C262.596,41.08 262.032,40.845 261.617,40.427 L249.078,27.9 C248.211,27.026 248.211,25.615 249.078,24.741 L261.617,12.202 C262.487,11.336 263.893,11.336 264.764,12.202 L277.303,24.741 C278.17,25.615 278.17,27.026 277.303,27.9 L264.764,40.427 C264.345,40.847 263.776,41.081 263.184,41.078 z M253.816,26.321 L263.184,35.701 L272.565,26.321 L263.184,16.94 z" fill="#153B50"/>
    <path d="M347.679,411.25 C347.087,411.25 346.519,411.016 346.1,410.599 L333.561,398.072 C332.694,397.198 332.694,395.787 333.561,394.913 L346.1,382.374 C346.974,381.507 348.385,381.507 349.259,382.374 L361.786,394.913 C362.209,395.33 362.447,395.899 362.447,396.492 C362.447,397.086 362.209,397.655 361.786,398.072 L349.259,410.599 C348.839,411.016 348.271,411.25 347.679,411.25 z M338.299,396.492 L347.679,405.861 L357.096,396.492 L347.715,387.112 z" fill="#153B50"/>
    <path d="M443.447,177.261 C442.854,177.258 442.286,177.019 441.868,176.598 L429.329,164.071 C428.462,163.197 428.462,161.786 429.329,160.912 L441.868,148.373 C442.29,147.959 442.857,147.725 443.447,147.722 L443.447,147.722 C444.038,147.725 444.605,147.959 445.027,148.373 L457.554,160.912 C457.977,161.329 458.215,161.898 458.215,162.492 C458.215,163.085 457.977,163.654 457.554,164.071 L445.027,176.598 C444.608,177.019 444.04,177.258 443.447,177.261 z M434.067,162.492 L443.447,171.872 L452.828,162.492 L443.447,153.111 z" fill="#153B50"/>
    <path d="M348.415,22.004 C347.327,21.998 346.401,21.209 346.225,20.134 C346.049,19.061 346.674,18.017 347.703,17.664 L373.975,8.742 C375.144,8.345 376.412,8.972 376.809,10.14 C377.205,11.309 376.578,12.577 375.41,12.974 L349.138,21.92 C348.903,21.989 348.659,22.018 348.415,22.004 z" fill="#153B50"/>
    <path d="M366.054,30.734 C365.104,30.735 364.257,30.136 363.944,29.239 L354.986,2.918 C354.608,1.754 355.241,0.502 356.402,0.115 C357.563,-0.272 358.821,0.349 359.218,1.508 L368.164,27.828 C368.529,28.989 367.896,30.228 366.741,30.613 C366.519,30.687 366.288,30.726 366.054,30.734 z" fill="#153B50"/>
    <path d="M602.671,428.407 C601.581,428.407 600.65,427.618 600.471,426.543 C600.291,425.467 600.917,424.42 601.948,424.066 L628.268,415.12 C629.032,414.825 629.897,414.971 630.52,415.502 C631.143,416.033 631.426,416.864 631.256,417.664 C631.084,418.466 630.489,419.109 629.703,419.34 L603.382,428.323 C603.151,428.386 602.911,428.414 602.671,428.407 z" fill="#153B50"/>
    <path d="M620.31,437.1 C619.351,437.1 618.498,436.489 618.188,435.581 L609.242,409.261 C608.845,408.092 609.472,406.824 610.641,406.427 C611.809,406.031 613.077,406.657 613.474,407.826 L622.42,434.146 C622.612,434.707 622.572,435.322 622.309,435.853 C622.046,436.385 621.583,436.79 621.022,436.979 C620.793,437.059 620.553,437.1 620.31,437.1 z" fill="#153B50"/>
    <path d="M186.478,425.429 C176.579,425.435 168.552,417.415 168.55,407.516 C168.547,397.618 176.572,389.593 186.47,389.596 C196.368,389.598 204.39,397.626 204.383,407.524 C204.369,417.407 196.361,425.416 186.478,425.429 z M186.478,395.287 C179.725,395.279 174.245,400.751 174.24,407.504 C174.236,414.258 179.708,419.736 186.462,419.738 C193.216,419.74 198.692,414.265 198.692,407.512 C198.685,400.77 193.22,395.306 186.478,395.299 z" fill="#153B50"/>
    <path d="M179.401,184.592 C179.016,184.592 178.639,184.492 178.304,184.303 L157.807,172.68 C157.117,172.279 156.688,171.548 156.673,170.751 C156.671,169.952 157.094,169.213 157.783,168.809 L178.099,156.849 C178.785,156.435 179.641,156.423 180.338,156.819 C181.034,157.213 181.465,157.953 181.462,158.754 L181.655,182.337 C181.663,183.576 180.663,184.585 179.425,184.592 z M163.353,170.69 L177.146,178.503 L177.074,170.582 L177.074,170.582 L177.013,162.66 z" fill="#153B50"/>
    <path d="M594.943,44.201 C594.756,44.201 594.569,44.177 594.388,44.129 C593.615,43.929 593.009,43.331 592.796,42.561 L586.503,19.834 C586.283,19.065 586.495,18.238 587.057,17.669 C587.619,17.1 588.444,16.877 589.215,17.085 L612.039,22.993 C612.811,23.196 613.416,23.792 613.631,24.56 C613.847,25.327 613.636,26.151 613.076,26.719 L596.534,43.598 C596.102,43.999 595.531,44.214 594.943,44.201 z M591.832,22.366 L596.064,37.678 L601.622,32.036 L601.622,32.036 L607.18,26.381 z" fill="#153B50"/>
    <path d="M487.13,376.008 C486.745,376.009 486.366,375.909 486.032,375.718 L465.536,364.095 C464.848,363.693 464.426,362.956 464.426,362.16 C464.426,361.364 464.848,360.628 465.536,360.225 L485.864,348.265 C486.553,347.867 487.404,347.867 488.094,348.265 C488.784,348.665 489.213,349.397 489.227,350.194 L489.42,373.777 C489.428,374.574 489.009,375.313 488.323,375.718 C487.959,375.923 487.547,376.023 487.13,376.008 z M471.07,362.106 L484.899,369.919 L484.839,361.997 L484.839,361.997 L484.766,354.076 z" fill="#153B50"/>
    <path d="M611.352,109.574 C610.989,109.575 610.635,109.46 610.339,109.248 L603.696,104.425 L603.696,104.425 L597.052,99.603 C596.562,99.242 596.299,98.648 596.364,98.041 C596.428,97.436 596.81,96.91 597.366,96.661 L612.449,90.017 C613.01,89.753 613.669,89.815 614.171,90.179 C614.674,90.543 614.938,91.151 614.861,91.766 L613.076,108.151 C613.015,108.76 612.626,109.287 612.063,109.526 C611.832,109.592 611.589,109.608 611.352,109.574 z M605.721,101.616 L609.977,104.739 L611.183,94.237 L601.538,98.493 z" fill="#153B50"/>
    <path d="M315.174,152.496 L240.421,152.496 C238.06,152.5 235.795,151.563 234.126,149.893 C232.456,148.225 231.519,145.959 231.523,143.598 L231.523,136.545 C231.519,134.184 232.456,131.919 234.126,130.25 C235.795,128.58 238.06,127.643 240.421,127.647 L315.174,127.647 L331.185,140.102 z" fill="#FFFFFF" fill-opacity="0.8" opacity="0.8"/>
    <path d="M315.174,187.413 L240.421,187.413 C235.506,187.413 231.523,183.43 231.523,178.515 L231.523,171.39 C231.523,169.031 232.461,166.769 234.13,165.102 C235.798,163.436 238.062,162.5 240.421,162.504 L315.174,162.504 L331.185,174.958 z" fill="#FFFFFF" fill-opacity="0.8" opacity="0.8"/>
    <path d="M315.174,224.561 L240.421,224.561 C238.06,224.564 235.795,223.627 234.126,221.958 C232.456,220.289 231.519,218.023 231.523,215.663 L231.523,208.549 C231.523,203.635 235.506,199.651 240.421,199.651 L315.174,199.651 L331.185,212.106 z" fill="#FFFFFF" fill-opacity="0.8" opacity="0.8"/>
    <path d="M315.174,261.587 L240.421,261.587 C235.506,261.587 231.523,257.604 231.523,252.689 L231.523,245.576 C231.519,243.215 232.456,240.95 234.126,239.281 C235.795,237.611 238.06,236.674 240.421,236.678 L315.174,236.678 L331.185,249.133 z" fill="#FFFFFF" fill-opacity="0.8" opacity="0.8"/>
    <path d="M340.602,126.321 L357.385,126.321 C359.409,126.321 361.05,127.962 361.05,129.986 L361.05,146.769 C361.05,148.794 359.409,150.435 357.385,150.435 L340.602,150.435 C338.577,150.435 336.936,148.794 336.936,146.769 L336.936,129.986 C336.936,127.962 338.577,126.321 340.602,126.321 z" fill="#FFFFFF" fill-opacity="0.8" opacity="0.8"/>
    <path d="M340.602,162.902 L357.385,162.902 C359.409,162.902 361.05,164.542 361.05,166.567 L361.05,183.35 C361.05,185.374 359.409,187.015 357.385,187.015 L340.602,187.015 C338.577,187.015 336.936,185.374 336.936,183.35 L336.936,166.567 C336.936,164.542 338.577,162.902 340.602,162.902 z" fill="#FFFFFF" fill-opacity="0.8" opacity="0.8"/>
    <path d="M340.602,200.025 L357.385,200.025 C359.409,200.025 361.05,201.666 361.05,203.69 L361.05,220.473 C361.05,222.498 359.409,224.139 357.385,224.139 L340.602,224.139 C338.577,224.139 336.936,222.498 336.936,220.473 L336.936,203.69 C336.936,201.666 338.577,200.025 340.602,200.025 z" fill="#FFFFFF" fill-opacity="0.8" opacity="0.8"/>
    <path d="M340.602,237.076 L357.385,237.076 C359.409,237.076 361.05,238.717 361.05,240.741 L361.05,257.524 C361.05,259.549 359.409,261.19 357.385,261.19 L340.602,261.19 C338.577,261.19 336.936,259.549 336.936,257.524 L336.936,240.741 C336.936,238.717 338.577,237.076 340.602,237.076 z" fill="#FFFFFF" fill-opacity="0.8" opacity="0.8"/>
    <g opacity="0.5">
      <path d="M66.56,123.753 L204.31,123.753 L204.31,141.247 L66.56,141.247 z" fill="#FFFFFF"/>
    </g>
    <g opacity="0.5">
      <path d="M66.56,145.347 L152.188,145.347 L152.188,162.841 L66.56,162.841 z" fill="#FFFFFF"/>
    </g>
    <g opacity="0.5">
      <path d="M275.953,310.985 L361.581,310.985 L361.581,317.278 L275.953,317.278 z" fill="#FFFFFF"/>
    </g>
    <path d="M244.544,133.808 L247.727,133.808 L252.55,147.264 L249.5,147.264 L248.583,144.503 L243.64,144.503 L242.724,147.264 L239.782,147.264 z M244.363,142.248 L247.812,142.248 L246.172,136.895 z" fill="#FFFFFF"/>
    <path d="M242.073,206.704 C243.329,205.541 245.007,204.944 246.716,205.05 C248.424,205.157 250.015,205.96 251.115,207.271 C251.651,208.004 251.968,208.873 252.032,209.779 L249.222,209.779 C249.097,209.25 248.863,208.753 248.535,208.32 C247.962,207.705 247.143,207.382 246.305,207.44 C245.345,207.393 244.431,207.85 243.893,208.646 C243.254,209.696 242.952,210.916 243.025,212.142 C242.933,213.343 243.257,214.539 243.941,215.53 C244.49,216.259 245.356,216.68 246.268,216.663 C247.116,216.714 247.936,216.355 248.475,215.699 C248.808,215.229 249.042,214.696 249.162,214.131 L251.959,214.131 C251.781,215.514 251.13,216.792 250.115,217.748 C249.073,218.685 247.706,219.178 246.305,219.123 C244.6,219.209 242.946,218.527 241.795,217.266 C240.632,215.816 240.048,213.986 240.156,212.13 C240.039,210.137 240.729,208.181 242.073,206.704 z" fill="#FFFFFF"/>
    <path d="M248.306,242.646 C249.238,242.949 250.043,243.55 250.597,244.358 C251.059,245.01 251.387,245.748 251.561,246.528 C251.725,247.26 251.81,248.009 251.815,248.759 C251.864,250.343 251.49,251.913 250.729,253.304 C249.857,254.996 248.072,256.016 246.172,255.909 L240.373,255.909 L240.373,242.405 L246.172,242.405 C246.892,242.378 247.61,242.46 248.306,242.646 z M243.146,244.696 L243.146,253.497 L245.75,253.497 C247.014,253.548 248.152,252.74 248.523,251.532 C248.831,250.716 248.978,249.848 248.957,248.976 C249.02,247.885 248.794,246.795 248.306,245.817 C247.722,245.007 246.74,244.585 245.75,244.72 z" fill="#FFFFFF"/>
    <path d="M250.585,169.665 C251.004,170.265 251.22,170.983 251.2,171.715 C251.236,172.427 251.018,173.127 250.585,173.692 C250.298,174.016 249.949,174.277 249.56,174.464 C250.201,174.675 250.751,175.101 251.115,175.67 C251.475,176.265 251.654,176.951 251.634,177.647 C251.643,178.402 251.434,179.143 251.031,179.781 C250.79,180.196 250.465,180.558 250.078,180.842 C249.631,181.182 249.111,181.414 248.559,181.517 C247.936,181.642 247.302,181.703 246.666,181.698 L240.638,181.698 L240.638,168.231 L247.137,168.231 C248.45,168.125 249.734,168.659 250.585,169.665 z M243.278,170.558 L243.278,173.524 L246.558,173.524 C247.052,173.543 247.543,173.431 247.98,173.198 C248.371,172.928 248.58,172.464 248.523,171.992 C248.565,171.476 248.275,170.992 247.8,170.787 C247.285,170.626 246.747,170.553 246.208,170.57 z M243.278,175.754 L243.278,179.371 L246.546,179.371 C247.012,179.392 247.478,179.31 247.908,179.13 C248.519,178.805 248.872,178.143 248.8,177.454 C248.85,176.839 248.507,176.261 247.944,176.007 C247.513,175.846 247.055,175.767 246.594,175.778 z" fill="#FFFFFF"/>
    <path d="M350.44,273.066 L350.44,293.357 C350.32,293.291 350.203,293.219 350.091,293.14 L342.796,288.318 C342.624,288.206 342.422,288.148 342.217,288.149 C340.59,288.149 340.18,288.149 338.54,288.149 C338.16,288.207 337.776,288.081 337.504,287.81 C337.233,287.539 337.108,287.154 337.166,286.774 L337.166,279.625 C337.132,279.267 337.26,278.912 337.513,278.658 C337.767,278.404 338.122,278.277 338.48,278.31 C340.132,278.31 340.554,278.31 342.193,278.31 C342.41,278.301 342.621,278.238 342.808,278.13 L350.042,273.307 z" fill="#FFFFFF"/>
    <path d="M361.581,283.278 C361.619,286.069 360.589,288.77 358.699,290.825 C358.447,291.15 357.997,291.241 357.638,291.042 C357.442,290.947 357.298,290.768 357.249,290.554 C357.201,290.341 357.25,290.118 357.385,289.945 C357.566,289.716 357.759,289.511 357.94,289.282 C360.859,285.651 360.679,280.43 357.518,277.008 C357.361,276.827 357.192,276.671 357.047,276.49 C356.926,276.332 356.873,276.129 356.903,275.932 C356.932,275.734 357.041,275.557 357.204,275.441 C357.334,275.313 357.512,275.246 357.694,275.258 C357.876,275.268 358.044,275.358 358.157,275.501 C360.308,277.521 361.543,280.328 361.581,283.278 z" fill="#FFFFFF"/>
    <path d="M358.301,283.29 C358.315,285.253 357.562,287.142 356.203,288.559 C356.082,288.723 355.894,288.825 355.69,288.84 C355.486,288.853 355.286,288.777 355.142,288.631 C354.98,288.501 354.884,288.303 354.884,288.095 C354.884,287.886 354.98,287.688 355.142,287.558 C357.401,285.174 357.336,281.422 354.998,279.118 C354.636,278.744 354.588,278.407 354.829,278.069 C354.964,277.853 355.195,277.716 355.449,277.703 C355.703,277.688 355.949,277.798 356.107,277.997 C357.507,279.404 358.295,281.305 358.301,283.29 z" fill="#FFFFFF"/>
    <path d="M355.022,283.362 C355.012,284.462 354.581,285.514 353.816,286.304 C353.586,286.619 353.145,286.689 352.827,286.461 C352.46,286.223 352.348,285.737 352.574,285.364 C352.651,285.25 352.737,285.142 352.827,285.038 C353.623,284.027 353.583,282.591 352.731,281.626 L352.502,281.373 C352.322,281.223 352.219,281.003 352.219,280.77 C352.219,280.537 352.322,280.315 352.502,280.167 C352.664,280.003 352.888,279.915 353.118,279.927 C353.348,279.938 353.563,280.048 353.708,280.227 C354.535,281.063 355.006,282.187 355.022,283.362 z" fill="#FFFFFF"/>
    <path d="M402.972,286.63 C402.43,286.633 401.909,286.42 401.524,286.038 C401.138,285.654 400.923,285.135 400.923,284.592 L400.923,280.022 C401.005,278.954 401.896,278.13 402.966,278.13 C404.037,278.13 404.928,278.954 405.01,280.022 L405.01,284.64 C404.983,285.747 404.079,286.63 402.972,286.63 z" fill="#465775"/>
    <path d="M498.005,286.63 C496.88,286.63 495.967,285.717 495.967,284.592 L495.967,280.022 C495.967,278.898 496.88,277.985 498.005,277.985 C499.13,277.985 500.042,278.898 500.042,280.022 L500.042,284.64 C500.023,285.749 499.114,286.637 498.005,286.63 z" fill="#465775"/>
    <path d="M409.302,291.175 C408.177,291.175 407.264,290.262 407.264,289.137 L407.264,275.429 C407.264,274.304 408.177,273.391 409.302,273.391 C410.427,273.391 411.34,274.304 411.34,275.429 L411.34,289.137 C411.34,290.262 410.427,291.175 409.302,291.175 z" fill="#465775"/>
    <path d="M421.974,290.042 C420.849,290.042 419.936,289.129 419.936,288.004 L419.936,276.562 C419.936,275.437 420.849,274.525 421.974,274.525 C423.099,274.525 424.012,275.437 424.012,276.562 L424.012,288.004 C424.012,289.129 423.099,290.042 421.974,290.042 z" fill="#465775"/>
    <path d="M459.989,295.154 C458.865,295.154 457.952,294.241 457.952,293.116 L457.952,271.414 C457.952,270.289 458.865,269.376 459.989,269.376 C461.114,269.376 462.027,270.289 462.027,271.414 L462.027,293.116 C462.027,294.241 461.114,295.154 459.989,295.154 z" fill="#465775"/>
    <path d="M472.661,290.608 C471.536,290.608 470.624,289.696 470.624,288.571 L470.624,275.995 C470.624,274.871 471.536,273.958 472.661,273.958 C473.786,273.958 474.699,274.871 474.699,275.995 L474.699,288.571 C474.699,289.696 473.786,290.608 472.661,290.608 z" fill="#465775"/>
    <path d="M479.003,294.587 C478.461,294.587 477.941,294.371 477.558,293.986 C477.175,293.601 476.962,293.08 476.966,292.538 L476.966,272.041 C476.966,270.916 477.878,270.003 479.003,270.003 C480.128,270.003 481.041,270.916 481.041,272.041 L481.041,292.538 C481.041,293.665 480.13,294.58 479.003,294.587 z" fill="#465775"/>
    <path d="M453.66,299.121 C453.118,299.124 452.599,298.91 452.215,298.527 C451.833,298.144 451.618,297.624 451.622,297.083 L451.622,267.483 C451.622,266.358 452.535,265.446 453.66,265.446 C454.784,265.446 455.697,266.358 455.697,267.483 L455.697,297.083 C455.697,298.208 454.784,299.121 453.66,299.121 z" fill="#465775"/>
    <path d="M447.318,291.742 C446.193,291.742 445.28,290.829 445.28,289.704 L445.28,274.862 C445.28,273.737 446.193,272.824 447.318,272.824 C448.442,272.824 449.355,273.737 449.355,274.862 L449.355,289.668 C449.365,290.214 449.155,290.742 448.772,291.132 C448.388,291.522 447.864,291.742 447.318,291.742 z" fill="#465775"/>
    <path d="M434.646,287.257 C433.521,287.257 432.608,286.344 432.608,285.219 L432.608,279.468 C432.608,278.343 433.521,277.43 434.646,277.43 C435.771,277.43 436.683,278.343 436.683,279.468 L436.683,285.219 C436.687,285.76 436.472,286.28 436.09,286.663 C435.707,287.047 435.187,287.26 434.646,287.257 z" fill="#465775"/>
    <path d="M415.644,286.051 C415.102,286.055 414.581,285.841 414.196,285.459 C413.81,285.076 413.594,284.556 413.594,284.013 L413.594,280.529 C413.676,279.461 414.567,278.636 415.638,278.636 C416.709,278.636 417.6,279.461 417.682,280.529 L417.682,284.013 C417.682,285.138 416.769,286.051 415.644,286.051 z" fill="#465775"/>
    <path d="M428.316,297.421 C427.189,297.421 426.272,296.51 426.266,295.383 L426.266,269.171 C426.348,268.103 427.239,267.278 428.31,267.278 C429.38,267.278 430.271,268.103 430.353,269.171 L430.353,295.371 C430.357,295.913 430.144,296.434 429.761,296.819 C429.378,297.205 428.858,297.421 428.316,297.421 z" fill="#465775"/>
    <path d="M440.988,284.93 C439.86,284.93 438.944,284.019 438.938,282.892 L438.938,281.686 C439.02,280.618 439.911,279.793 440.982,279.793 C442.052,279.793 442.943,280.618 443.025,281.686 L443.025,282.892 C443.025,284.017 442.113,284.93 440.988,284.93 z" fill="#465775"/>
    <path d="M491.675,284.93 C490.55,284.93 489.637,284.017 489.637,282.892 L489.637,281.686 C489.637,280.561 490.55,279.649 491.675,279.649 C492.8,279.649 493.713,280.561 493.713,281.686 L493.713,282.892 C493.713,284.017 492.8,284.93 491.675,284.93 z" fill="#465775"/>
    <path d="M396.63,284.93 C395.505,284.93 394.593,284.017 394.593,282.892 L394.593,281.686 C394.593,280.561 395.505,279.649 396.63,279.649 C397.755,279.649 398.668,280.561 398.668,281.686 L398.668,282.892 C398.668,284.017 397.755,284.93 396.63,284.93 z" fill="#465775"/>
    <path d="M504.347,284.93 C503.222,284.93 502.309,284.017 502.309,282.892 L502.309,281.686 C502.309,280.561 503.222,279.649 504.347,279.649 C505.472,279.649 506.384,280.561 506.384,281.686 L506.384,282.892 C506.384,284.017 505.472,284.93 504.347,284.93 z" fill="#465775"/>
    <path d="M466.331,288.908 C465.206,288.908 464.294,287.996 464.294,286.871 L464.294,277.695 C464.294,276.571 465.206,275.658 466.331,275.658 C467.456,275.658 468.369,276.571 468.369,277.695 L468.369,286.871 C468.369,287.996 467.456,288.908 466.331,288.908 z" fill="#465775"/>
    <path d="M485.333,288.342 C484.206,288.336 483.295,287.419 483.295,286.292 L483.295,278.274 C483.295,277.149 484.208,276.237 485.333,276.237 C486.458,276.237 487.371,277.149 487.371,278.274 L487.371,286.292 C487.374,286.835 487.161,287.355 486.779,287.74 C486.395,288.126 485.876,288.342 485.333,288.342 z" fill="#465775"/>
    <path d="M606.09,64.108 L694.336,92.986 C706.646,97.014 713.358,110.257 709.331,122.566 L641.294,330.478 C637.266,342.788 624.023,349.5 611.714,345.473 L523.468,316.596 C511.159,312.568 504.446,299.324 508.474,287.014 L576.51,79.102 C580.538,66.793 593.781,60.08 606.09,64.108 z" fill="#465775"/>
    <path d="M605.461,72.199 L690.051,99.88 C699.329,102.916 704.388,112.898 701.352,122.176 L634.631,326.065 C631.596,335.343 621.614,340.404 612.336,337.368 L527.746,309.686 C518.468,306.65 513.408,296.668 516.445,287.39 L583.164,83.501 C586.2,74.223 596.183,69.163 605.461,72.199 z" fill="#FFFFFF"/>
    <path d="M617.085,71.591 L680.312,92.223 L677.695,100.241 C676.869,102.771 674.149,104.153 671.618,103.327 L617.555,85.685 C615.025,84.86 613.643,82.139 614.469,79.609 L617.085,71.591 z" fill="#465775"/>
    <g opacity="0.3">
      <path d="M583.909,228.274 C583.909,235.273 578.235,240.946 571.238,240.946 C564.239,240.946 558.566,235.273 558.566,228.274 C558.566,221.275 564.239,215.602 571.238,215.602 C578.235,215.602 583.909,221.275 583.909,228.274 z" fill="#153B50"/>
      <path d="M611.001,237.136 C611.001,244.135 605.328,249.808 598.329,249.808 C591.332,249.808 585.658,244.135 585.658,237.136 C585.658,230.137 591.332,224.464 598.329,224.464 C605.328,224.464 611.001,230.137 611.001,237.136 z" fill="#153B50"/>
      <path d="M638.081,245.998 C638.081,252.997 632.407,258.67 625.409,258.67 C618.41,258.67 612.737,252.997 612.737,245.998 C612.737,238.999 618.41,233.326 625.409,233.326 C632.407,233.326 638.081,238.999 638.081,245.998 z" fill="#153B50"/>
    </g>
    <g opacity="0.3">
      <path d="M574.794,256.114 C574.794,263.113 569.12,268.785 562.122,268.785 C555.123,268.785 549.451,263.113 549.451,256.114 C549.451,249.115 555.123,243.442 562.122,243.442 C569.12,243.442 574.794,249.115 574.794,256.114 z" fill="#153B50"/>
      <path d="M601.886,264.975 C601.886,271.974 596.213,277.647 589.214,277.647 C582.216,277.647 576.542,271.974 576.542,264.975 C576.542,257.976 582.216,252.304 589.214,252.304 C596.213,252.304 601.886,257.976 601.886,264.975 z" fill="#153B50"/>
      <path d="M628.978,273.837 C628.978,280.836 623.304,286.509 616.306,286.509 C609.307,286.509 603.634,280.836 603.634,273.837 C603.634,266.838 609.307,261.165 616.306,261.165 C623.304,261.165 628.978,266.838 628.978,273.837 z" fill="#153B50"/>
    </g>
    <path d="M590.566,296.661 C590.566,303.659 584.893,309.333 577.894,309.333 C570.895,309.333 565.222,303.659 565.222,296.661 C565.222,289.662 570.895,283.989 577.894,283.989 C584.893,283.989 590.566,289.662 590.566,296.661 z" fill="#ED1C24"/>
    <path d="M653.877,180.927 C653.877,201.449 637.239,218.086 616.717,218.086 C596.195,218.086 579.558,201.449 579.558,180.927 C579.558,160.405 596.195,143.767 616.717,143.767 C637.239,143.767 653.877,160.405 653.877,180.927 z" fill="#F7931E"/>
    <path d="M616.753,220.799 C612.531,220.793 608.337,220.121 604.323,218.809 C584.683,212.342 573.309,191.871 578.192,171.779 C583.075,151.687 602.576,138.719 622.992,141.986 C643.409,145.254 657.888,163.661 656.257,184.272 C654.625,204.885 637.43,220.784 616.753,220.799 z M616.681,146.444 C598.669,146.433 583.675,160.268 582.239,178.223 C580.805,196.177 593.41,212.219 611.195,215.071 C628.979,217.922 645.969,206.625 650.217,189.121 C654.466,171.617 644.548,153.788 627.436,148.168 C623.964,147.033 620.334,146.451 616.681,146.444 z" fill="#153B50"/>
    <path d="M584.586,298.168 C584.586,298.313 584.67,298.457 584.718,298.59 C584.929,299.219 584.929,299.902 584.718,300.531 C584.663,300.758 584.555,300.969 584.405,301.146 C584.17,301.385 583.819,301.469 583.5,301.363 L580.932,300.519 C580.484,300.355 580.252,299.86 580.414,299.41 C580.547,298.976 580.691,298.554 580.836,298.12 C580.883,298.069 580.883,297.99 580.836,297.939 C580,297.328 579.078,296.844 578.099,296.504 C577.471,296.29 576.819,296.152 576.158,296.094 L574.952,296.022 C574.868,296.022 574.832,296.022 574.807,296.106 C574.675,296.54 574.53,296.962 574.398,297.384 C574.284,297.775 573.924,298.04 573.517,298.035 C573.34,298.009 573.167,297.964 572.999,297.903 L570.744,297.167 C570.516,297.107 570.325,296.954 570.215,296.745 C570.105,296.537 570.087,296.292 570.166,296.07 C570.278,295.573 570.501,295.107 570.817,294.708 C571.135,294.314 571.551,294.011 572.022,293.828 C572.943,293.485 573.922,293.326 574.904,293.357 C575.758,293.365 576.606,293.471 577.436,293.671 C578.445,293.898 579.43,294.221 580.378,294.635 C580.92,294.865 581.475,295.118 582.005,295.407 C582.896,295.874 583.658,296.554 584.224,297.384 C584.26,297.44 584.301,297.492 584.344,297.541 z" fill="#FFFFFF"/>
    <g>
      <path d="M593.966,102.394 Q594.175,101.754 593.928,101.371 Q593.68,100.988 593.073,100.789 L591.476,100.266 L590.685,102.682 L592.283,103.205 Q592.889,103.403 593.323,103.219 Q593.756,103.034 593.966,102.394 z M595.667,102.938 Q595.191,104.391 594.26,104.752 Q593.328,105.113 591.964,104.666 L590.222,104.096 L589.256,107.046 L587.553,106.488 L590.239,98.283 L593.813,99.453 Q595.049,99.858 595.576,100.733 Q596.103,101.608 595.667,102.938 z" fill="#465775"/>
      <path d="M598.078,108.695 Q598.774,108.923 599.309,108.55 Q599.844,108.176 600.143,107.263 Q600.442,106.35 600.23,105.736 Q600.018,105.121 599.323,104.893 Q598.627,104.665 598.09,105.035 Q597.553,105.405 597.254,106.318 Q596.955,107.23 597.169,107.849 Q597.382,108.467 598.078,108.695 z M601.807,107.808 Q601.37,109.144 600.291,109.842 Q599.212,110.539 597.648,110.027 Q596.084,109.515 595.627,108.315 Q595.169,107.114 595.606,105.778 Q596.036,104.465 597.12,103.753 Q598.203,103.041 599.767,103.554 Q601.332,104.066 601.784,105.28 Q602.237,106.495 601.807,107.808 z" fill="#465775"/>
      <path d="M603.823,109.67 Q603.735,110.109 603.844,110.342 Q604.035,110.756 604.831,111.017 Q605.298,111.17 605.619,111.121 Q605.94,111.072 606.032,110.793 Q606.119,110.526 605.942,110.314 Q605.765,110.102 604.445,109.294 Q603.499,108.701 603.202,108.179 Q602.903,107.662 603.136,106.949 Q603.411,106.109 604.269,105.72 Q605.126,105.332 606.323,105.724 Q607.458,106.096 608.025,106.784 Q608.592,107.472 608.333,108.62 L606.747,108.1 Q606.814,107.783 606.733,107.559 Q606.577,107.151 605.948,106.945 Q605.43,106.776 605.158,106.865 Q604.885,106.954 604.814,107.172 Q604.724,107.444 604.918,107.643 Q605.11,107.848 606.427,108.624 Q607.301,109.157 607.626,109.762 Q607.944,110.372 607.72,111.057 Q607.425,111.958 606.568,112.309 Q605.71,112.66 604.307,112.201 Q602.877,111.733 602.393,110.906 Q601.908,110.078 602.215,109.143 z" fill="#465775"/>
      <path d="M609.268,108.192 L609.638,107.062 L610.484,107.339 L611.038,105.647 L612.608,106.161 L612.054,107.853 L613.039,108.176 L612.669,109.306 L611.684,108.983 L610.634,112.189 Q610.512,112.562 610.577,112.685 Q610.641,112.808 611.126,112.966 Q611.198,112.99 611.28,113.014 Q611.361,113.037 611.441,113.057 L611.053,114.243 L610.292,114.025 Q609.155,113.696 608.884,113.132 Q608.706,112.772 608.892,112.204 L610.114,108.469 z" fill="#465775"/>
      <path d="M616.094,110.384 Q615.543,110.203 615.127,110.449 Q614.711,110.695 614.439,111.259 L616.905,112.067 Q617.072,111.425 616.837,110.987 Q616.601,110.55 616.094,110.384 z M616.523,109.076 Q617.28,109.323 617.793,109.806 Q618.307,110.288 618.502,111.03 Q618.681,111.687 618.554,112.434 Q618.478,112.871 618.21,113.653 L614.058,112.293 Q613.792,113.217 614.212,113.761 Q614.466,114.097 614.928,114.248 Q615.418,114.408 615.815,114.23 Q616.031,114.135 616.247,113.909 L617.866,114.44 Q617.628,114.96 616.945,115.352 Q615.876,115.982 614.473,115.523 Q613.316,115.144 612.675,114.108 Q612.034,113.073 612.584,111.392 Q613.1,109.816 614.174,109.237 Q615.248,108.658 616.523,109.076 z" fill="#465775"/>
      <path d="M623.759,111.463 Q623.803,111.478 623.833,111.49 Q623.863,111.503 623.967,111.543 L623.435,113.169 Q623.29,113.103 623.175,113.059 Q623.06,113.015 622.987,112.992 Q622.03,112.678 621.497,113.194 Q621.199,113.485 620.96,114.214 L620.011,117.114 L618.413,116.591 L620.4,110.524 L621.914,111.019 L621.567,112.077 Q622.133,111.59 622.479,111.457 Q623.046,111.23 623.759,111.463 z" fill="#465775"/>
      <path d="M630.484,111.458 L632.265,112.042 L626.78,119.33 L625.16,118.8 L625.074,109.687 L626.905,110.287 L626.647,117.099 z" fill="#465775"/>
      <path d="M632.718,120.035 Q633.414,120.263 633.949,119.89 Q634.484,119.516 634.783,118.603 Q635.082,117.69 634.87,117.076 Q634.658,116.461 633.962,116.233 Q633.267,116.005 632.73,116.375 Q632.193,116.745 631.894,117.658 Q631.595,118.57 631.808,119.189 Q632.022,119.807 632.718,120.035 z M636.447,119.148 Q636.01,120.484 634.931,121.182 Q633.852,121.879 632.288,121.367 Q630.724,120.855 630.266,119.655 Q629.809,118.454 630.246,117.118 Q630.676,115.804 631.76,115.093 Q632.843,114.381 634.407,114.894 Q635.971,115.406 636.424,116.62 Q636.877,117.834 636.447,119.148 z" fill="#465775"/>
      <path d="M637.568,117.457 L637.938,116.327 L638.784,116.604 L639.338,114.911 L640.908,115.425 L640.354,117.118 L641.339,117.44 L640.969,118.57 L639.984,118.247 L638.934,121.454 Q638.812,121.827 638.877,121.95 Q638.941,122.072 639.425,122.231 Q639.498,122.255 639.579,122.278 Q639.661,122.302 639.741,122.322 L639.353,123.507 L638.592,123.289 Q637.455,122.96 637.183,122.397 Q637.005,122.036 637.191,121.469 L638.414,117.734 z" fill="#465775"/>
      <path d="M644.394,119.648 Q643.843,119.468 643.426,119.714 Q643.01,119.959 642.739,120.524 L645.205,121.331 Q645.372,120.689 645.136,120.252 Q644.9,119.814 644.394,119.648 z M644.822,118.34 Q645.579,118.588 646.093,119.07 Q646.607,119.553 646.802,120.295 Q646.981,120.951 646.854,121.698 Q646.778,122.136 646.51,122.917 L642.357,121.558 Q642.092,122.481 642.512,123.026 Q642.765,123.361 643.227,123.513 Q643.717,123.673 644.115,123.495 Q644.331,123.399 644.546,123.174 L646.166,123.704 Q645.928,124.224 645.245,124.617 Q644.176,125.247 642.773,124.787 Q641.615,124.408 640.974,123.373 Q640.333,122.337 640.884,120.656 Q641.4,119.081 642.473,118.502 Q643.547,117.923 644.822,118.34 z" fill="#465775"/>
    </g>
    <g>
      <path d="M587.848,111.872 Q589.009,112.252 589.213,113.378 Q589.372,114.248 588.951,115.534 Q588.552,116.753 587.928,117.431 Q587.027,118.403 585.833,118.012 Q584.756,117.66 584.536,116.552 Q584.354,115.628 584.784,114.313 Q585.118,113.294 585.62,112.65 Q586.558,111.45 587.848,111.872 z M586.053,117.326 Q586.638,117.517 587.154,117.113 Q587.67,116.709 588.132,115.298 Q588.465,114.279 588.43,113.54 Q588.395,112.8 587.673,112.564 Q587.009,112.346 586.498,112.87 Q585.986,113.394 585.589,114.609 Q585.289,115.523 585.304,116.142 Q585.327,117.088 586.053,117.326 z" fill="#465775"/>
      <path d="M591.257,114.722 L592.13,115.007 L591.832,115.918 L590.959,115.632 z M590.111,118.224 L590.983,118.51 L590.685,119.42 L589.813,119.135 z" fill="#465775"/>
      <path d="M593.976,115.811 L594.165,115.235 Q595.005,115.422 595.387,115.341 Q595.77,115.261 596.155,114.62 L596.748,114.814 L594.799,120.767 L593.997,120.505 L595.383,116.271 z" fill="#465775"/>
      <path d="M598.614,120.329 Q598.479,120.996 598.92,121.413 Q599.146,121.626 599.497,121.741 Q600.165,121.96 600.626,121.639 Q601.087,121.318 601.256,120.801 Q601.461,120.175 601.191,119.707 Q600.921,119.24 600.387,119.065 Q599.999,118.938 599.672,118.997 Q599.345,119.057 599.061,119.26 L598.422,119.009 L599.931,115.939 L603.037,116.956 L602.799,117.682 L600.257,116.85 L599.458,118.428 Q599.719,118.338 599.933,118.32 Q600.312,118.292 600.75,118.435 Q601.573,118.704 601.971,119.422 Q602.37,120.139 602.103,120.953 Q601.826,121.801 601.09,122.276 Q600.354,122.752 599.206,122.376 Q598.475,122.137 598.048,121.542 Q597.622,120.947 597.834,120.073 z" fill="#465775"/>
    </g>
    <path d="M603.877,180.613 C608.739,189.303 619.474,192.781 628.509,188.595 C629.245,190.054 630.076,191.488 630.715,192.996 C632.554,197.065 633.35,201.527 633.03,205.981 C632.776,208.978 631.809,211.872 630.209,214.421 C628.918,216.511 626.722,217.876 624.277,218.11 C621.687,218.369 619.072,218.178 616.549,217.543 C610.533,216.187 604.639,214.344 598.921,212.033 C596.118,211.021 593.469,209.625 591.048,207.886 C587.564,205.233 586.563,202.123 587.528,197.867 C588.962,191.549 592.917,187.16 598.053,183.627 C599.869,182.396 601.823,181.385 603.877,180.613 z" fill="#FFFFFF" opacity="0.44"/>
    <path d="M606.433,166.784 C608.974,159.019 617.327,154.785 625.092,157.325 C632.857,159.866 637.092,168.219 634.554,175.983 C632.015,183.748 623.663,187.986 615.897,185.448 C612.163,184.234 609.066,181.584 607.289,178.081 C605.513,174.579 605.205,170.514 606.433,166.784 z" fill="#FFFFFF" opacity="0.44"/>
    <path d="M616.753,220.799 C612.531,220.793 608.337,220.121 604.323,218.809 C584.683,212.342 573.309,191.871 578.192,171.779 C583.075,151.687 602.576,138.719 622.992,141.986 C643.409,145.254 657.888,163.661 656.257,184.272 C654.625,204.885 637.43,220.784 616.753,220.799 z M616.681,146.444 C598.669,146.433 583.675,160.268 582.239,178.223 C580.805,196.177 593.41,212.219 611.195,215.071 C628.979,217.922 645.969,206.625 650.217,189.121 C654.466,171.617 644.548,153.788 627.436,148.168 C623.964,147.033 620.334,146.451 616.681,146.444 z" fill="#465775"/>
  </g>
</svg>
