<?xml version="1.0" encoding="UTF-8"?>
<!DOCTYPE svg PUBLIC "-//W3C//DTD SVG 1.1//EN" "http://www.w3.org/Graphics/SVG/1.1/DTD/svg11.dtd">
<svg version="1.1" xmlns="http://www.w3.org/2000/svg" xmlns:xlink="http://www.w3.org/1999/xlink" x="0" y="0" width="777.06" height="437.1" viewBox="0, 0, 777.06, 437.1">
  <g id="Layer_1">
    <path d="M266.422,18.762 L534.445,18.762 C566.765,18.762 592.965,44.962 592.965,77.282 L592.965,345.305 C592.965,377.625 566.765,403.825 534.445,403.825 L266.422,403.825 C234.102,403.825 207.902,377.625 207.902,345.305 L207.902,77.282 C207.902,44.962 234.102,18.762 266.422,18.762 z" fill="#C7B299" opacity="0.41"/>
    <path d="M206.532,102.329 L594.335,102.329 C610.585,102.329 623.759,115.503 623.759,131.753 L623.759,321.885 C623.759,338.135 610.585,351.309 594.335,351.309 L206.532,351.309 C190.282,351.309 177.108,338.135 177.108,321.885 L177.108,131.753 C177.108,115.503 190.282,102.329 206.532,102.329 z" fill="#FFFFFF"/>
    <path d="M594.346,354.645 L206.532,354.645 C188.433,354.645 173.761,339.973 173.761,321.874 L173.761,131.753 C173.761,113.654 188.433,98.981 206.532,98.981 L594.346,98.981 C612.446,98.981 627.118,113.654 627.118,131.753 L627.118,321.885 C627.111,339.98 612.441,354.645 594.346,354.645 z M206.532,105.664 C192.132,105.684 180.464,117.352 180.444,131.753 L180.444,321.885 C180.464,336.286 192.132,347.954 206.532,347.974 L594.346,347.974 C608.747,347.954 620.415,336.286 620.435,321.885 L620.435,131.753 C620.415,117.352 608.747,105.684 594.346,105.664 z" fill="#465775"/>
    <path d="M211.354,116.093 L590.461,116.093 C600.499,116.093 608.637,124.23 608.637,134.269 L608.637,320.165 C608.637,330.203 600.499,338.341 590.461,338.341 L211.354,338.341 C201.316,338.341 193.178,330.203 193.178,320.165 L193.178,134.269 C193.178,124.23 201.316,116.093 211.354,116.093 z" fill="#B757D7"/>
    <path d="M347.129,73.965 L347.129,77.832 L350.537,77.832 Q351.552,77.832 352.06,77.598 Q352.959,77.188 352.959,75.977 Q352.959,74.668 352.09,74.219 Q351.601,73.965 350.625,73.965 z M351.25,71.465 Q352.763,71.494 353.579,71.836 Q354.394,72.178 354.961,72.842 Q355.429,73.389 355.703,74.053 Q355.976,74.717 355.976,75.567 Q355.976,76.592 355.459,77.583 Q354.941,78.574 353.75,78.985 Q354.746,79.385 355.161,80.122 Q355.576,80.86 355.576,82.373 L355.576,83.34 Q355.576,84.326 355.654,84.678 Q355.771,85.235 356.201,85.498 L356.201,85.86 L352.89,85.86 Q352.754,85.381 352.695,85.088 Q352.578,84.483 352.568,83.848 L352.549,82.51 Q352.529,81.133 352.046,80.674 Q351.562,80.215 350.234,80.215 L347.129,80.215 L347.129,85.86 L344.189,85.86 L344.189,71.465 z" fill="#465775"/>
    <path d="M369.209,74.014 L361.592,74.014 L361.592,77.071 L368.584,77.071 L368.584,79.571 L361.592,79.571 L361.592,83.272 L369.56,83.272 L369.56,85.86 L358.652,85.86 L358.652,71.465 L369.209,71.465 z" fill="#465775"/>
    <path d="M374.082,81.416 Q374.218,82.403 374.619,82.891 Q375.351,83.78 377.129,83.78 Q378.193,83.78 378.857,83.545 Q380.117,83.096 380.117,81.875 Q380.117,81.162 379.492,80.772 Q378.867,80.391 377.529,80.098 L376.006,79.756 Q373.759,79.248 372.9,78.653 Q371.445,77.656 371.445,75.537 Q371.445,73.604 372.851,72.324 Q374.258,71.045 376.982,71.045 Q379.258,71.045 380.864,72.251 Q382.47,73.457 382.549,75.752 L379.658,75.752 Q379.58,74.453 378.525,73.906 Q377.822,73.545 376.777,73.545 Q375.615,73.545 374.922,74.014 Q374.228,74.483 374.228,75.322 Q374.228,76.094 374.912,76.475 Q375.351,76.729 376.787,77.071 L379.267,77.666 Q380.898,78.057 381.728,78.711 Q383.017,79.727 383.017,81.651 Q383.017,83.623 381.509,84.927 Q380,86.231 377.246,86.231 Q374.433,86.231 372.822,84.947 Q371.211,83.662 371.211,81.416 z" fill="#465775"/>
    <path d="M385.244,71.465 L388.301,71.465 L388.301,80.313 Q388.301,81.797 388.652,82.481 Q389.199,83.692 391.035,83.692 Q392.861,83.692 393.408,82.481 Q393.759,81.797 393.759,80.313 L393.759,71.465 L396.816,71.465 L396.816,80.313 Q396.816,82.608 396.103,83.887 Q394.775,86.231 391.035,86.231 Q387.295,86.231 385.957,83.887 Q385.244,82.608 385.244,80.313 z" fill="#465775"/>
    <path d="M399.687,71.465 L402.695,71.465 L402.695,83.272 L409.824,83.272 L409.824,85.86 L399.687,85.86 z" fill="#465775"/>
    <path d="M420.888,71.465 L420.888,74.014 L416.582,74.014 L416.582,85.86 L413.554,85.86 L413.554,74.014 L409.228,74.014 L409.228,71.465 z" fill="#465775"/>
    <path d="M424.824,81.416 Q424.961,82.403 425.361,82.891 Q426.093,83.78 427.871,83.78 Q428.935,83.78 429.599,83.545 Q430.859,83.096 430.859,81.875 Q430.859,81.162 430.234,80.772 Q429.609,80.391 428.271,80.098 L426.748,79.756 Q424.502,79.248 423.642,78.653 Q422.187,77.656 422.187,75.537 Q422.187,73.604 423.593,72.324 Q425,71.045 427.724,71.045 Q430,71.045 431.606,72.251 Q433.213,73.457 433.291,75.752 L430.4,75.752 Q430.322,74.453 429.267,73.906 Q428.564,73.545 427.519,73.545 Q426.357,73.545 425.664,74.014 Q424.97,74.483 424.97,75.322 Q424.97,76.094 425.654,76.475 Q426.093,76.729 427.529,77.071 L430.009,77.666 Q431.64,78.057 432.47,78.711 Q433.759,79.727 433.759,81.651 Q433.759,83.623 432.251,84.927 Q430.742,86.231 427.988,86.231 Q425.176,86.231 423.564,84.947 Q421.953,83.662 421.953,81.416 z" fill="#465775"/>
    <path d="M214.901,141.689 L218.95,141.689 L225.025,158.801 L221.139,158.801 L219.968,155.29 L213.672,155.29 L212.501,158.801 L208.756,158.801 z M214.667,152.328 L219.044,152.328 L216.89,145.599 z" fill="#FFFFFF"/>
    <path d="M211.167,243.55 C212.766,242.072 214.899,241.312 217.072,241.447 C219.245,241.581 221.269,242.6 222.672,244.264 C223.354,245.198 223.761,246.305 223.843,247.459 L220.273,247.459 C220.115,246.784 219.815,246.149 219.395,245.598 C218.68,244.795 217.636,244.363 216.563,244.428 C215.357,244.4 214.222,244.992 213.555,245.996 C212.742,247.336 212.36,248.892 212.454,250.455 C212.346,251.983 212.758,253.501 213.625,254.762 C214.328,255.682 215.428,256.213 216.586,256.19 C217.662,256.255 218.703,255.797 219.383,254.961 C219.815,254.371 220.118,253.697 220.273,252.983 L223.784,252.983 C223.544,254.719 222.718,256.321 221.443,257.525 C220.118,258.718 218.38,259.348 216.598,259.28 C214.432,259.397 212.328,258.539 210.863,256.939 C207.971,252.897 208.084,247.432 211.144,243.515 z" fill="#FFFFFF"/>
    <path d="M218.821,295.914 C220.004,296.304 221.027,297.068 221.736,298.091 C222.306,298.924 222.704,299.864 222.906,300.853 C223.113,301.779 223.223,302.724 223.234,303.674 C223.298,305.688 222.825,307.684 221.865,309.456 C220.718,311.532 218.487,312.772 216.118,312.651 L208.744,312.651 L208.744,295.539 L216.118,295.539 C217.033,295.53 217.944,295.656 218.821,295.914 z M212.267,298.512 L212.267,309.725 L215.568,309.725 C217.17,309.794 218.615,308.767 219.079,307.232 C219.463,306.187 219.645,305.079 219.617,303.966 C219.698,302.583 219.415,301.204 218.798,299.964 C218.056,298.93 216.805,298.389 215.544,298.559 z" fill="#FFFFFF"/>
    <path d="M221.513,189.793 C222.049,190.556 222.323,191.471 222.298,192.403 C222.344,193.309 222.066,194.201 221.513,194.92 C221.149,195.334 220.702,195.669 220.203,195.903 C221.014,196.168 221.71,196.701 222.181,197.412 C222.644,198.164 222.876,199.035 222.848,199.917 C222.858,200.88 222.595,201.826 222.087,202.644 C221.785,203.163 221.387,203.619 220.917,203.99 C220.347,204.419 219.685,204.711 218.985,204.845 C218.192,205.004 217.384,205.082 216.574,205.079 L208.861,205.079 L208.861,188.002 L217.136,188.002 C218.798,187.864 220.425,188.53 221.513,189.793 z M212.232,190.964 L212.232,194.744 L216.387,194.744 C217.02,194.772 217.649,194.622 218.201,194.311 C218.686,193.974 218.95,193.4 218.892,192.813 C218.967,192.14 218.591,191.497 217.967,191.233 C217.314,191.037 216.635,190.946 215.954,190.964 z M212.232,197.565 L212.232,202.129 L216.387,202.129 C216.98,202.16 217.573,202.055 218.119,201.825 C218.914,201.427 219.379,200.578 219.29,199.695 C219.353,198.913 218.916,198.177 218.201,197.857 C217.657,197.648 217.075,197.548 216.492,197.565 z" fill="#FFFFFF"/>
    <path d="M245.366,139.349 L515.168,139.349 C521.095,139.349 525.901,144.154 525.901,150.081 L525.901,154.903 C525.901,160.83 521.095,165.636 515.168,165.636 L245.366,165.636 C239.439,165.636 234.634,160.83 234.634,154.903 L234.634,150.081 C234.634,144.154 239.439,139.349 245.366,139.349 z" fill="#FFFFFF"/>
    <path d="M515.168,168.667 L245.366,168.667 C237.774,168.66 231.62,162.507 231.614,154.915 L231.614,150.081 C231.62,142.489 237.774,136.336 245.366,136.329 L515.168,136.329 C522.761,136.336 528.914,142.489 528.921,150.081 L528.921,154.915 C528.914,162.507 522.761,168.66 515.168,168.667 z M245.366,142.357 C241.11,142.364 237.659,145.813 237.653,150.07 L237.653,154.903 C237.659,159.16 241.11,162.61 245.366,162.616 L515.168,162.616 C519.425,162.61 522.874,159.16 522.881,154.903 L522.881,150.081 C522.881,145.82 519.43,142.364 515.168,142.357 z" fill="#153B50"/>
    <path d="M330.783,165.648 L243.962,165.648 C238.791,165.648 234.599,161.455 234.599,156.284 L234.599,148.677 C234.599,143.506 238.791,139.313 243.962,139.313 L330.783,139.313 z" fill="#F7931E"/>
    <path d="M515.168,168.667 L245.366,168.667 C237.774,168.66 231.62,162.507 231.614,154.915 L231.614,150.081 C231.62,142.489 237.774,136.336 245.366,136.329 L515.168,136.329 C522.761,136.336 528.914,142.489 528.921,150.081 L528.921,154.915 C528.914,162.507 522.761,168.66 515.168,168.667 z M245.366,142.357 C241.11,142.364 237.659,145.813 237.653,150.07 L237.653,154.903 C237.659,159.16 241.11,162.61 245.366,162.616 L515.168,162.616 C519.425,162.61 522.874,159.16 522.881,154.903 L522.881,150.081 C522.881,145.82 519.43,142.364 515.168,142.357 z" fill="#465775"/>
    <path d="M245.366,183.379 L515.168,183.379 C521.095,183.379 525.901,188.185 525.901,194.112 L525.901,198.934 C525.901,204.861 521.095,209.667 515.168,209.667 L245.366,209.667 C239.439,209.667 234.634,204.861 234.634,198.934 L234.634,194.112 C234.634,188.185 239.439,183.379 245.366,183.379 z" fill="#FFFFFF"/>
    <path d="M515.168,212.686 L245.366,212.686 C237.774,212.679 231.62,206.526 231.614,198.934 L231.614,194.112 C231.62,186.52 237.774,180.367 245.366,180.36 L515.168,180.36 C522.761,180.367 528.914,186.52 528.921,194.112 L528.921,198.934 C528.914,206.526 522.761,212.679 515.168,212.686 z M245.366,186.399 C241.11,186.406 237.659,189.855 237.653,194.112 L237.653,198.934 C237.659,203.191 241.11,206.64 245.366,206.647 L515.168,206.647 C519.429,206.647 522.881,203.194 522.881,198.934 L522.881,194.112 C522.874,189.855 519.425,186.406 515.168,186.399 z" fill="#153B50"/>
    <path d="M414.876,209.667 L247.403,209.667 C240.352,209.674 234.634,203.96 234.634,196.909 L234.634,196.195 C234.63,192.808 235.975,189.558 238.371,187.163 C240.765,184.767 244.016,183.423 247.403,183.426 L414.876,183.426 z" fill="#F4B06C"/>
    <path d="M515.168,212.686 L245.366,212.686 C237.774,212.679 231.62,206.526 231.614,198.934 L231.614,194.112 C231.62,186.52 237.774,180.367 245.366,180.36 L515.168,180.36 C522.761,180.367 528.914,186.52 528.921,194.112 L528.921,198.934 C528.914,206.526 522.761,212.679 515.168,212.686 z M245.366,186.399 C241.11,186.406 237.659,189.855 237.653,194.112 L237.653,198.934 C237.659,203.191 241.11,206.64 245.366,206.647 L515.168,206.647 C519.429,206.647 522.881,203.194 522.881,198.934 L522.881,194.112 C522.874,189.855 519.425,186.406 515.168,186.399 z" fill="#465775"/>
    <path d="M245.366,237.241 L515.168,237.241 C521.095,237.241 525.901,242.047 525.901,247.974 L525.901,252.796 C525.901,258.723 521.095,263.529 515.168,263.529 L245.366,263.529 C239.439,263.529 234.634,258.723 234.634,252.796 L234.634,247.974 C234.634,242.047 239.439,237.241 245.366,237.241 z" fill="#FFFFFF"/>
    <path d="M515.168,266.548 L245.366,266.548 C237.774,266.541 231.62,260.389 231.614,252.796 L231.614,247.974 C231.62,240.382 237.774,234.229 245.366,234.222 L515.168,234.222 C522.761,234.229 528.914,240.382 528.921,247.974 L528.921,252.796 C528.914,260.389 522.761,266.541 515.168,266.548 z M245.366,240.261 C241.11,240.268 237.659,243.717 237.653,247.974 L237.653,252.796 C237.659,257.053 241.11,260.502 245.366,260.509 L515.168,260.509 C519.429,260.509 522.881,257.056 522.881,252.796 L522.881,247.974 C522.874,243.717 519.425,240.268 515.168,240.261 z" fill="#153B50"/>
    <path d="M484.937,263.529 L247.777,263.529 C240.518,263.529 234.634,257.644 234.634,250.385 L234.634,250.385 C234.634,243.126 240.518,237.241 247.777,237.241 L484.937,237.241 z" fill="#F7931E"/>
    <path d="M515.168,266.548 L245.366,266.548 C237.774,266.541 231.62,260.389 231.614,252.796 L231.614,247.974 C231.62,240.382 237.774,234.229 245.366,234.222 L515.168,234.222 C522.761,234.229 528.914,240.382 528.921,247.974 L528.921,252.796 C528.914,260.389 522.761,266.541 515.168,266.548 z M245.366,240.261 C241.11,240.268 237.659,243.717 237.653,247.974 L237.653,252.796 C237.659,257.053 241.11,260.502 245.366,260.509 L515.168,260.509 C519.429,260.509 522.881,257.056 522.881,252.796 L522.881,247.974 C522.874,243.717 519.425,240.268 515.168,240.261 z" fill="#465775"/>
    <path d="M245.366,291.174 L515.168,291.174 C521.095,291.174 525.901,295.979 525.901,301.906 L525.901,306.728 C525.901,312.655 521.095,317.461 515.168,317.461 L245.366,317.461 C239.439,317.461 234.634,312.655 234.634,306.728 L234.634,301.906 C234.634,295.979 239.439,291.174 245.366,291.174 z" fill="#FFFFFF"/>
    <path d="M515.168,320.492 L245.366,320.492 C237.774,320.485 231.62,314.333 231.614,306.74 L231.614,301.906 C231.627,294.316 237.776,288.167 245.366,288.154 L515.168,288.154 C522.758,288.167 528.908,294.316 528.921,301.906 L528.921,306.74 C528.914,314.333 522.761,320.485 515.168,320.492 z M245.366,294.193 C241.11,294.2 237.659,297.65 237.653,301.906 L237.653,306.74 C237.659,310.997 241.11,314.446 245.366,314.453 L515.168,314.453 C519.425,314.446 522.874,310.997 522.881,306.74 L522.881,301.906 C522.874,297.65 519.425,294.2 515.168,294.193 z" fill="#153B50"/>
    <path d="M368.68,317.473 L245.647,317.473 C239.565,317.473 234.634,312.542 234.634,306.459 L234.634,302.187 C234.634,296.105 239.565,291.174 245.647,291.174 L368.68,291.174 z" fill="#F4B06C"/>
    <path d="M515.168,320.492 L245.366,320.492 C237.774,320.485 231.62,314.333 231.614,306.74 L231.614,301.906 C231.627,294.316 237.776,288.167 245.366,288.154 L515.168,288.154 C522.758,288.167 528.908,294.316 528.921,301.906 L528.921,306.74 C528.914,314.333 522.761,320.485 515.168,320.492 z M245.366,294.193 C241.11,294.2 237.659,297.65 237.653,301.906 L237.653,306.74 C237.659,310.997 241.11,314.446 245.366,314.453 L515.168,314.453 C519.425,314.446 522.874,310.997 522.881,306.74 L522.881,301.906 C522.874,297.65 519.425,294.2 515.168,294.193 z" fill="#465775"/>
    <path d="M433.755,27.27 C426.229,27.263 420.131,21.161 420.131,13.635 C420.131,6.11 426.229,0.007 433.755,0 C441.281,-0.007 447.389,6.086 447.402,13.612 C447.402,21.15 441.294,27.263 433.755,27.27 z M433.755,4.331 C429.962,4.302 426.526,6.565 425.054,10.062 C423.583,13.558 424.367,17.597 427.039,20.289 C429.711,22.982 433.744,23.796 437.251,22.351 C440.759,20.906 443.048,17.487 443.048,13.694 C443.048,8.55 438.899,4.369 433.755,4.331 z" fill="#153B50"/>
    <path d="M652.445,182.244 C644.914,182.251 638.803,176.149 638.798,168.617 C638.794,161.084 644.897,154.976 652.43,154.974 C659.962,154.971 666.069,161.077 666.069,168.609 C666.062,176.132 659.969,182.231 652.445,182.244 z M652.445,159.316 C647.304,159.309 643.131,163.474 643.129,168.617 C643.127,173.759 647.296,177.928 652.437,177.925 C657.58,177.923 661.744,173.75 661.738,168.609 C661.7,163.492 657.562,159.354 652.445,159.316 z" fill="#153B50"/>
    <path d="M145.437,83.743 C144.862,83.743 144.311,83.516 143.904,83.111 L131.767,70.962 C131.356,70.557 131.125,70.004 131.125,69.429 C131.125,68.853 131.356,68.3 131.767,67.895 L143.927,55.746 C144.776,54.905 146.145,54.905 146.994,55.746 L159.166,67.919 C160.007,68.767 160.007,70.137 159.166,70.985 L146.994,83.157 C146.573,83.553 146.013,83.764 145.437,83.743 z M136.331,69.405 L145.437,78.511 L154.543,69.405 L145.437,60.299 z" fill="#153B50"/>
    <path d="M331.754,423.711 C331.179,423.711 330.628,423.483 330.221,423.079 L318.049,410.918 C317.207,410.069 317.207,408.7 318.049,407.852 L330.221,395.679 C331.069,394.838 332.439,394.838 333.287,395.679 L345.448,407.852 C345.859,408.257 346.089,408.809 346.089,409.385 C346.089,409.961 345.859,410.513 345.448,410.918 L333.287,423.079 C332.88,423.483 332.329,423.711 331.754,423.711 z M322.648,409.385 L331.754,418.479 L340.86,409.385 L331.754,400.279 z" fill="#153B50"/>
    <path d="M663.927,287.487 C663.352,287.486 662.802,287.259 662.394,286.855 L650.21,274.612 C649.799,274.207 649.569,273.655 649.569,273.079 C649.569,272.503 649.799,271.951 650.21,271.546 L662.37,259.397 C662.775,258.986 663.328,258.756 663.904,258.756 C664.479,258.756 665.032,258.986 665.437,259.397 L677.609,271.558 C678.451,272.406 678.451,273.776 677.609,274.624 L665.437,286.796 C665.046,287.219 664.503,287.468 663.927,287.487 z M654.833,273.149 L663.927,282.255 L673.033,273.149 L663.927,263.997 z" fill="#153B50"/>
    <path d="M298.62,63.775 C297.564,63.77 296.665,63.003 296.494,61.96 C296.323,60.919 296.93,59.905 297.929,59.562 L323.479,50.866 C324.613,50.481 325.845,51.089 326.23,52.224 C326.615,53.358 326.006,54.589 324.872,54.974 L299.322,63.658 C299.096,63.737 298.859,63.777 298.62,63.775 z" fill="#153B50"/>
    <path d="M315.743,72.214 C314.815,72.213 313.991,71.62 313.695,70.739 L304.999,45.213 C304.613,44.079 305.222,42.847 306.356,42.462 C307.49,42.077 308.722,42.686 309.107,43.82 L317.791,69.37 C317.981,69.914 317.946,70.512 317.693,71.031 C317.44,71.549 316.991,71.946 316.445,72.132 C316.216,72.193 315.979,72.221 315.743,72.214 z" fill="#153B50"/>
    <path d="M602.691,428.661 C601.633,428.661 600.73,427.896 600.555,426.852 C600.381,425.808 600.988,424.791 601.989,424.448 L627.539,415.764 C628.281,415.477 629.12,415.618 629.725,416.135 C630.331,416.65 630.604,417.456 630.439,418.233 C630.273,419.011 629.695,419.635 628.932,419.86 L603.382,428.556 C603.158,428.625 602.925,428.661 602.691,428.661 z" fill="#153B50"/>
    <path d="M619.814,437.1 C618.883,437.1 618.055,436.507 617.755,435.625 L609.07,410.075 C608.685,408.941 609.294,407.71 610.428,407.325 C611.562,406.94 612.793,407.548 613.178,408.683 L621.863,434.233 C622.049,434.777 622.01,435.374 621.755,435.89 C621.5,436.406 621.05,436.799 620.505,436.983 C620.283,437.06 620.05,437.1 619.814,437.1 z" fill="#153B50"/>
    <path d="M163.567,402.362 C153.958,402.369 146.165,394.583 146.163,384.974 C146.16,375.366 153.951,367.576 163.558,367.578 C173.167,367.58 180.954,375.373 180.947,384.982 C180.934,394.576 173.16,402.349 163.567,402.362 z M163.567,373.102 C157.011,373.095 151.692,378.406 151.687,384.962 C151.682,391.519 156.995,396.836 163.551,396.838 C170.107,396.84 175.423,391.526 175.423,384.97 C175.416,378.425 170.112,373.121 163.567,373.114 z" fill="#153B50"/>
    <path d="M120.858,245.036 C120.485,245.037 120.118,244.94 119.793,244.755 L99.896,233.473 C99.229,233.082 98.82,232.367 98.82,231.594 C98.82,230.822 99.229,230.107 99.896,229.716 L119.63,218.105 C120.298,217.719 121.119,217.716 121.791,218.096 C122.462,218.476 122.882,219.183 122.895,219.955 L123.082,242.848 C123.089,243.621 122.683,244.339 122.017,244.732 C121.666,244.939 121.266,245.045 120.858,245.036 z M105.269,231.553 L118.658,239.137 L118.518,223.747 z" fill="#153B50"/>
    <path d="M443.715,389.5 C443.342,389.501 442.974,389.404 442.65,389.219 L422.753,377.936 C422.086,377.545 421.676,376.83 421.676,376.057 C421.676,375.285 422.086,374.57 422.753,374.179 L442.486,362.569 C443.154,362.182 443.976,362.179 444.648,362.559 C445.319,362.94 445.739,363.646 445.752,364.418 L445.939,387.311 C445.946,388.085 445.54,388.802 444.874,389.195 C444.523,389.402 444.122,389.508 443.715,389.5 z M428.125,376.016 L441.55,383.589 L441.491,375.899 L441.491,375.899 L441.421,368.21 z" fill="#153B50"/>
    <path d="M574.309,71.067 C573.877,71.072 573.458,70.914 573.139,70.622 L561.435,59.714 C560.999,59.309 560.817,58.701 560.955,58.122 C561.109,57.552 561.555,57.106 562.125,56.952 L577.422,52.27 C577.989,52.103 578.602,52.246 579.037,52.645 C579.475,53.049 579.662,53.656 579.529,54.237 L575.924,69.791 C575.77,70.361 575.324,70.807 574.754,70.962 C574.611,71.018 574.461,71.053 574.309,71.067 z M565.835,59.258 L569.581,62.769 L569.581,62.769 L573.326,66.28 L575.667,56.285 z" fill="#153B50"/>
  </g>
</svg>
